<?xml version="1.0" encoding="utf-8"?>
<!DOCTYPE svg PUBLIC "-//W3C//DTD SVG 20010904//EN" "http://www.w3.org/TR/2001/REC-SVG-20010904/DTD/svg10.dtd">
<svg version="1.0" xmlns="http://www.w3.org/2000/svg" width="902pt" height="185pt" viewBox="0 0 902 185" style="" preserveAspectRatio="xMidYMid meet">
<g fill="#0076FFFF" stroke="#0076FFFF">
<path d="M 419.407 11.250 C 419.681 13.038 420.179 17.366 420.515 20.869 L 421.126 27.238 398.063 26.840 L 375.000 26.443 375.000 34.328 C 375.000 41.450 375.170 42.143 376.750 41.484 C 377.713 41.083 387.838 40.524 399.250 40.243 L 420.000 39.733 419.986 44.116 C 419.979 46.527 419.685 49.576 419.333 50.890 L 418.693 53.281 401.597 52.660 C 392.193 52.319 383.375 51.775 382.000 51.451 L 379.500 50.863 379.500 67.932 L 379.500 85.000 388.000 85.001 L 396.500 85.002 396.156 75.001 L 395.813 65.000 414.740 65.000 C 425.149 65.000 433.946 65.280 434.288 65.622 C 434.630 65.964 433.765 68.503 432.366 71.265 L 429.821 76.286 417.931 75.738 L 406.042 75.190 406.771 82.845 C 407.715 92.754 407.705 114.337 406.753 124.366 L 406.006 132.232 408.753 131.499 C 412.679 130.450 497.067 129.663 498.050 130.666 C 498.499 131.125 498.409 135.325 497.848 140.000 C 495.966 155.693 493.966 157.355 476.361 157.855 C 465.220 158.171 463.943 158.388 464.574 159.855 C 464.964 160.760 466.291 164.200 467.523 167.500 C 470.210 174.693 470.712 174.834 485.676 172.596 C 498.032 170.749 503.092 168.799 506.961 164.392 C 510.947 159.852 512.538 153.591 514.557 134.500 C 515.487 125.700 516.416 118.314 516.621 118.087 C 516.825 117.860 495.832 117.781 469.969 117.912 L 422.946 118.149 423.223 103.325 L 423.500 88.500 428.750 88.198 C 431.638 88.031 433.998 88.256 433.995 88.698 C 433.992 89.139 432.881 91.300 431.526 93.500 C 430.171 95.700 429.048 97.994 429.031 98.598 C 429.014 99.202 430.900 100.552 433.222 101.598 C 435.544 102.644 441.443 105.863 446.331 108.750 C 451.219 111.638 455.585 114.000 456.034 114.000 C 456.788 114.000 463.001 103.361 462.999 102.072 C 462.999 101.758 458.058 98.885 452.020 95.689 C 445.982 92.492 440.781 89.455 440.462 88.939 C 440.107 88.365 448.262 88.000 461.441 88.000 C 481.912 88.000 483.000 88.095 483.000 89.889 C 483.000 90.928 482.138 92.841 481.086 94.139 C 479.316 96.321 478.526 96.484 470.648 96.292 L 462.124 96.083 465.061 102.292 C 466.677 105.706 467.999 109.124 467.999 109.887 C 468.000 110.983 469.313 111.154 474.250 110.701 C 482.132 109.979 486.845 108.585 491.026 105.740 C 496.890 101.748 498.032 99.230 499.563 86.915 C 500.343 80.637 500.986 75.500 500.992 75.500 C 500.997 75.500 488.851 75.651 474.001 75.835 C 445.766 76.185 443.099 75.771 450.750 72.234 C 455.580 70.001 456.263 68.948 454.294 66.773 C 452.762 65.080 453.918 65.000 479.967 65.000 L 507.245 65.000 506.814 74.000 L 506.384 83.000 514.942 83.000 L 523.500 82.999 523.500 66.931 L 523.500 50.862 521.000 51.430 C 519.625 51.742 511.032 52.290 501.905 52.646 L 485.310 53.294 484.669 50.897 C 484.316 49.579 484.021 46.530 484.014 44.122 L 484.000 39.745 503.750 40.286 C 514.613 40.583 524.513 41.143 525.750 41.530 C 527.953 42.219 528.000 42.069 528.000 34.297 L 528.000 26.360 506.000 26.811 L 484.000 27.261 484.000 23.165 C 484.000 20.041 484.711 18.260 486.998 15.655 C 490.850 11.268 489.992 10.558 479.091 9.114 C 465.727 7.343 466.855 6.518 467.627 17.500 L 468.295 27.000 452.018 27.000 L 435.740 27.000 436.261 22.379 C 436.631 19.090 437.549 17.046 439.444 15.289 C 440.909 13.931 441.935 12.298 441.726 11.660 C 441.353 10.523 428.705 8.193 422.205 8.065 C 419.042 8.003 418.929 8.131 419.407 11.250 M 467.454 45.250 C 467.115 48.138 466.664 51.063 466.451 51.750 C 466.164 52.674 462.310 53.000 451.667 53.000 L 437.272 53.000 436.636 48.360 C 435.386 39.239 433.984 40.000 452.034 40.000 L 468.069 40.000 467.454 45.250 "/></g>
<g fill="#0076FFFF" stroke="#0076FFFF">
<path d="M 834.549 9.799 C 834.949 10.734 835.496 23.376 835.766 37.892 L 836.256 64.284 819.358 63.796 L 802.459 63.308 803.299 73.404 C 804.305 85.496 803.680 169.752 802.566 172.250 C 801.853 173.850 802.618 174.000 811.500 174.000 C 820.198 174.000 821.146 173.824 820.567 172.315 C 820.212 171.388 819.643 162.613 819.303 152.815 L 818.685 135.000 844.343 135.000 L 870.000 135.000 870.000 145.378 C 870.000 159.147 869.771 159.328 854.427 157.675 L 847.354 156.914 851.885 166.022 L 856.416 175.130 861.458 174.519 C 874.649 172.921 880.616 170.706 883.602 166.301 C 885.657 163.269 885.554 166.182 886.247 90.948 L 886.500 63.396 869.250 63.824 L 852.000 64.252 852.000 41.703 L 852.000 19.153 854.640 16.016 C 858.064 11.947 857.133 11.109 847.887 9.939 C 843.824 9.424 838.998 8.799 837.162 8.550 C 834.316 8.164 833.930 8.348 834.549 9.799 M 870.000 114.017 L 870.000 122.034 844.750 121.767 L 819.500 121.500 819.208 113.750 L 818.916 106.000 844.458 106.000 L 870.000 106.000 870.000 114.017 M 870.000 85.017 L 870.000 93.034 844.750 92.767 L 819.500 92.500 819.199 86.105 C 819.033 82.588 819.131 79.101 819.417 78.355 C 819.836 77.265 824.829 77.000 844.969 77.000 L 870.000 77.000 870.000 85.017 "/></g>
<g fill="#0076FFFF" stroke="#0076FFFF">
<path d="M 197.000 94.797 L 196.999 102.500 230.517 102.159 L 264.035 101.817 263.768 126.454 L 263.500 151.091 257.266 147.976 C 251.236 144.962 243.938 137.989 240.929 132.368 C 239.806 130.268 239.920 129.344 241.780 125.517 C 242.962 123.083 245.182 120.295 246.715 119.319 C 248.247 118.344 249.823 117.086 250.217 116.523 C 251.483 114.717 247.732 112.374 238.156 108.989 C 228.256 105.491 227.100 105.647 226.982 110.500 C 226.899 113.949 220.537 129.481 216.255 136.687 C 211.192 145.210 200.935 156.423 193.553 161.508 C 188.356 165.088 186.748 167.000 188.937 167.000 C 189.452 167.000 192.849 169.037 196.486 171.527 L 203.098 176.054 207.517 172.432 C 212.386 168.443 222.913 156.734 228.004 149.644 L 231.268 145.100 238.560 152.464 C 246.785 160.769 253.885 164.682 266.000 167.588 C 272.309 169.102 279.239 169.450 309.627 169.778 L 345.754 170.169 347.978 162.847 C 349.201 158.819 351.099 153.767 352.194 151.619 C 354.081 147.920 354.089 147.754 352.343 148.457 C 348.402 150.043 331.982 152.974 321.500 153.962 C 308.841 155.155 298.540 155.274 287.651 154.353 L 280.000 153.707 280.000 142.261 L 280.000 130.816 304.001 131.158 L 328.001 131.500 328.001 123.769 L 328.000 116.038 323.250 116.708 C 320.638 117.076 309.950 117.405 299.500 117.439 L 280.500 117.500 280.208 109.750 L 279.916 102.000 299.031 102.000 L 318.147 102.000 315.000 107.500 L 311.853 113.000 317.677 113.011 C 320.879 113.017 325.181 113.300 327.236 113.640 L 330.973 114.257 337.476 100.879 L 343.978 87.500 336.739 88.000 C 325.599 88.769 208.189 88.592 202.250 87.797 L 197.000 87.094 197.000 94.797 "/></g>
<g fill="#0076FFFF" stroke="#0076FFFF">
<path d="M 648.671 16.657 L 649.304 27.000 631.025 27.000 L 612.746 27.000 613.227 21.990 C 613.492 19.234 614.488 16.118 615.442 15.064 C 618.881 11.264 617.180 9.618 608.488 8.332 C 594.789 6.305 595.987 5.410 596.702 17.148 L 597.320 27.296 579.410 26.750 C 569.560 26.450 560.713 25.885 559.750 25.495 C 558.171 24.855 558.000 25.558 558.000 32.675 L 558.000 40.565 577.500 40.164 L 597.000 39.763 597.000 43.256 C 597.000 45.178 596.710 48.202 596.355 49.976 L 595.710 53.201 575.105 52.858 L 554.500 52.515 555.277 59.507 C 555.705 63.353 555.779 71.338 555.443 77.250 L 554.831 88.000 563.439 88.000 L 572.046 88.000 571.773 77.250 L 571.500 66.500 631.379 66.242 L 691.258 65.984 690.804 76.992 L 690.350 88.000 698.925 88.000 L 707.500 88.000 707.500 70.250 L 707.500 52.500 686.814 52.850 L 666.128 53.200 665.522 49.350 C 665.189 47.233 664.711 44.211 664.460 42.635 L 664.004 39.770 684.502 40.156 L 705.000 40.543 705.000 32.834 L 705.000 25.126 701.250 25.813 C 699.188 26.191 690.075 26.500 681.000 26.500 L 664.500 26.500 664.806 22.000 C 664.975 19.525 665.987 16.281 667.056 14.790 C 670.681 9.737 670.212 9.383 657.578 7.635 L 648.038 6.314 648.671 16.657 M 649.000 41.860 C 649.000 42.884 648.714 45.809 648.364 48.360 L 647.728 53.000 630.981 53.000 C 612.028 53.000 613.043 53.494 613.014 44.250 L 613.000 40.000 631.000 40.000 C 647.883 40.000 649.000 40.115 649.000 41.860 "/></g>
<g fill="#0076FFFF" stroke="#0076FFFF">
<path d="M 230.541 19.819 L 231.260 31.322 216.712 30.661 C 208.711 30.298 201.453 29.727 200.582 29.393 C 199.224 28.872 199.000 29.869 199.000 36.421 L 199.000 44.056 211.000 43.378 C 218.434 42.958 223.000 43.064 223.000 43.655 C 223.000 45.320 212.542 57.341 207.541 61.426 C 204.897 63.585 199.195 67.479 194.869 70.079 L 187.004 74.806 190.060 75.871 C 191.740 76.457 195.137 78.301 197.608 79.968 C 200.079 81.636 202.487 83.000 202.960 83.000 C 204.495 83.000 214.298 74.934 222.869 66.619 L 231.237 58.500 230.615 71.750 L 229.992 85.000 239.104 85.000 C 248.121 85.000 248.211 84.976 247.638 82.693 C 247.320 81.425 246.753 75.350 246.379 69.193 C 245.798 59.623 245.916 58.000 247.195 58.000 C 248.707 58.000 261.000 65.531 261.000 66.458 C 261.000 66.734 259.090 67.934 256.756 69.124 C 252.921 71.081 252.693 71.396 254.386 72.395 C 255.417 73.003 258.924 75.428 262.179 77.784 L 268.097 82.067 271.298 79.862 C 276.575 76.228 288.236 66.944 292.353 63.098 L 296.205 59.500 295.807 72.250 L 295.409 85.000 304.076 85.000 L 312.742 85.000 312.621 70.930 L 312.500 56.860 322.000 63.558 C 327.225 67.242 333.587 71.999 336.139 74.128 C 338.690 76.258 341.043 78.000 341.368 78.000 C 341.692 78.000 343.994 74.965 346.482 71.256 L 351.006 64.513 348.753 62.806 C 347.514 61.867 340.055 57.139 332.177 52.299 L 317.855 43.500 330.427 43.650 L 343.000 43.800 343.000 36.293 C 343.000 29.554 342.821 28.855 341.250 29.458 C 340.288 29.828 333.253 30.398 325.618 30.724 L 311.737 31.319 312.187 25.091 C 312.576 19.718 313.028 18.553 315.487 16.592 C 320.893 12.282 318.333 10.878 302.364 9.396 L 295.228 8.734 295.762 20.006 L 296.296 31.279 285.992 30.548 C 280.325 30.146 275.083 29.586 274.344 29.302 C 273.291 28.898 273.000 30.439 273.000 36.420 L 273.000 44.054 282.250 43.777 L 291.500 43.500 285.268 49.666 C 279.432 55.440 264.972 66.000 262.902 66.000 C 262.390 66.000 263.328 63.313 264.986 60.029 C 266.644 56.744 268.000 53.694 268.000 53.251 C 268.000 52.808 264.063 50.433 259.250 47.973 L 250.500 43.500 259.750 43.737 L 269.000 43.974 269.000 36.737 L 269.001 29.500 259.138 30.410 C 246.237 31.599 245.617 31.336 246.233 24.927 C 246.617 20.935 247.412 19.171 250.057 16.442 C 252.357 14.068 253.074 12.674 252.362 11.962 C 251.793 11.393 246.489 10.339 240.575 9.621 L 229.822 8.315 230.541 19.819 "/></g>
<g fill="#C61E68FF" stroke="#C61E68FF">
<path d="M 152.500 64.240 C 150.850 64.738 148.600 65.516 147.500 65.968 C 104.317 83.702 79.955 97.567 53.705 119.351 C 49.026 123.235 40.017 134.792 36.441 141.500 C 32.956 148.039 32.024 157.032 34.379 161.405 C 36.410 165.176 42.708 169.217 49.500 171.108 C 55.660 172.823 74.993 172.949 80.500 171.310 C 82.700 170.655 86.975 169.393 90.000 168.504 C 93.025 167.615 99.775 164.797 105.000 162.241 C 112.796 158.427 115.935 156.150 122.501 149.547 C 129.888 142.117 136.599 132.270 135.825 129.996 C 135.646 129.470 130.999 132.068 125.497 135.770 C 103.853 150.333 88.376 157.000 76.213 157.000 C 69.214 157.000 63.000 153.948 63.000 150.510 C 63.000 145.254 68.570 137.943 78.788 129.789 C 81.427 127.682 94.575 120.292 102.000 116.741 C 109.948 112.939 118.944 109.005 119.780 108.966 C 120.176 108.947 122.300 108.063 124.500 107.000 C 126.700 105.937 129.213 105.053 130.083 105.034 C 130.954 105.015 131.964 104.703 132.327 104.340 C 132.690 103.976 138.053 102.007 144.244 99.962 L 155.500 96.246 155.500 79.789 L 155.500 63.333 152.500 64.240 "/></g>
<g fill="#0076FFFF" stroke="#0076FFFF">
<path d="M 576.701 127.783 C 577.605 137.647 577.539 166.229 576.598 172.114 L 575.976 176.000 585.045 176.000 L 594.113 176.000 593.806 170.250 L 593.500 164.500 632.345 164.238 L 671.191 163.976 670.502 168.988 L 669.812 174.000 678.656 174.000 L 687.500 173.999 687.500 146.576 L 687.500 119.153 682.500 119.827 C 675.806 120.728 591.314 120.691 582.701 119.783 L 575.901 119.066 576.701 127.783 M 671.000 142.500 L 671.000 152.000 632.000 152.000 L 593.000 152.000 593.000 143.167 C 593.000 138.308 593.300 134.033 593.667 133.667 C 594.033 133.300 611.583 133.000 632.667 133.000 L 671.000 133.000 671.000 142.500 "/></g>
<g fill="#0076FFFF" stroke="#0076FFFF">
<path d="M 759.312 9.793 C 752.844 28.448 739.387 50.026 729.536 57.541 L 726.081 60.175 732.291 64.338 L 738.500 68.500 738.799 74.224 L 739.098 79.948 743.799 79.433 C 746.385 79.149 750.188 78.705 752.250 78.447 L 756.000 77.976 756.000 88.625 L 756.000 99.274 746.250 98.596 C 740.888 98.224 735.038 97.662 733.250 97.348 L 730.000 96.777 730.000 104.725 L 730.000 112.673 743.000 112.204 L 756.000 111.735 756.000 132.332 L 756.000 152.930 752.899 156.463 L 749.797 159.995 754.873 165.854 C 762.993 175.227 761.555 175.382 772.655 163.931 C 778.070 158.344 786.013 150.840 790.306 147.254 C 795.999 142.499 797.935 140.296 797.460 139.117 C 797.101 138.228 796.078 134.038 795.187 129.806 L 793.567 122.111 782.833 133.306 L 772.098 144.500 772.049 128.117 L 772.000 111.735 785.000 112.204 L 798.000 112.673 798.000 104.712 L 798.000 96.750 795.159 97.318 C 793.596 97.631 787.746 98.201 782.159 98.586 L 772.000 99.286 772.000 88.541 L 772.000 77.797 779.250 78.440 C 783.238 78.793 788.188 79.328 790.250 79.629 L 794.000 80.176 794.000 72.338 L 794.001 64.500 770.524 64.500 L 747.047 64.500 752.233 56.639 L 757.419 48.778 777.710 49.160 L 798.000 49.543 798.000 41.646 L 798.000 33.750 794.859 34.378 C 793.131 34.724 785.931 35.299 778.859 35.657 C 769.235 36.144 766.000 36.009 766.000 35.121 C 766.000 34.468 767.149 31.665 768.554 28.893 C 770.388 25.273 772.060 23.455 774.486 22.441 C 781.367 19.566 779.881 17.201 767.702 11.644 C 760.758 8.476 759.839 8.273 759.312 9.793 "/></g>
<g fill="#0076FFFF" stroke="#0076FFFF">
<path d="M 587.623 86.500 C 587.922 94.200 587.755 103.298 587.253 106.717 L 586.340 112.934 592.420 112.217 C 600.232 111.296 665.073 111.279 671.000 112.197 L 675.500 112.893 675.500 92.697 L 675.500 72.500 631.290 72.500 L 587.081 72.500 587.623 86.500 M 659.000 92.516 L 659.000 99.032 631.250 98.766 L 603.500 98.500 603.190 93.627 C 603.020 90.947 603.118 88.134 603.409 87.377 C 603.840 86.254 609.011 86.000 631.469 86.000 L 659.000 86.000 659.000 92.516 "/></g>
<g fill="#04498907" stroke="#04498907">
<path d="M 105.663 28.263 C 106.071 28.923 105.741 29.115 104.811 28.758 C 103.955 28.429 102.550 29.045 101.585 30.171 C 100.640 31.275 99.211 31.911 98.386 31.595 C 97.567 31.280 97.160 31.451 97.483 31.973 C 97.996 32.802 91.855 36.662 89.714 36.857 C 89.282 36.896 88.212 37.646 87.335 38.522 C 86.459 39.398 85.102 39.869 84.319 39.569 C 83.536 39.269 83.159 39.448 83.480 39.968 C 84.129 41.017 80.107 43.971 77.302 44.504 C 76.311 44.693 75.898 44.881 76.385 44.923 C 76.872 44.966 76.084 45.933 74.635 47.073 C 73.186 48.212 72.000 48.801 72.000 48.381 C 72.000 47.961 71.438 48.271 70.750 49.069 C 68.106 52.139 64.139 55.158 62.358 55.455 C 61.336 55.626 60.598 56.225 60.718 56.787 C 60.838 57.349 60.275 58.356 59.468 59.027 C 58.661 59.697 58.000 59.942 58.000 59.571 C 58.000 59.200 56.875 60.111 55.500 61.595 C 54.125 63.078 53.000 63.917 53.000 63.459 C 53.000 63.001 51.666 63.904 50.036 65.466 C 48.405 67.028 47.284 68.651 47.545 69.073 C 47.806 69.495 46.777 70.817 45.260 72.010 C 43.742 73.204 42.500 74.541 42.500 74.980 C 42.500 75.884 34.083 87.456 33.848 86.876 C 33.764 86.669 33.608 86.950 33.501 87.500 C 33.000 90.079 31.536 92.641 29.730 94.099 C 28.641 94.978 27.750 96.890 27.750 98.349 C 27.750 99.807 27.330 101.000 26.816 101.000 C 26.302 101.000 26.125 101.394 26.423 101.875 C 27.036 102.868 24.275 111.721 22.641 114.000 C 22.050 114.825 21.933 115.194 22.381 114.819 C 22.829 114.445 23.225 119.152 23.261 125.281 C 23.339 138.381 25.516 145.908 29.250 145.985 C 29.663 145.993 30.000 145.523 30.000 144.941 C 30.000 144.359 29.532 144.171 28.960 144.525 C 28.276 144.947 28.158 144.196 28.615 142.334 C 28.997 140.775 29.665 139.358 30.099 139.185 C 30.533 139.012 30.611 138.151 30.274 137.271 C 29.842 136.147 30.040 135.906 30.937 136.461 C 31.894 137.053 32.035 136.686 31.500 135.000 C 30.969 133.326 31.109 132.949 32.047 133.529 C 32.847 134.024 33.059 133.904 32.626 133.204 C 31.757 131.799 35.914 122.829 37.095 123.559 C 37.580 123.859 37.681 123.332 37.319 122.388 C 36.836 121.132 37.015 120.891 37.985 121.490 C 38.819 122.006 39.069 121.920 38.660 121.259 C 38.303 120.682 38.676 119.954 39.489 119.643 C 40.413 119.288 40.726 118.407 40.324 117.288 C 39.947 116.239 40.057 115.845 40.591 116.333 C 41.091 116.792 41.556 116.679 41.625 116.083 C 41.694 115.488 41.806 114.523 41.875 113.941 C 41.944 113.359 42.520 113.203 43.155 113.595 C 43.825 114.010 44.039 113.872 43.666 113.268 C 43.049 112.271 44.680 110.263 46.250 110.085 C 46.663 110.038 46.759 110.000 46.465 110.000 C 46.170 110.000 46.409 109.104 46.995 108.010 C 47.580 106.915 48.588 106.128 49.234 106.260 C 49.880 106.392 50.430 105.980 50.455 105.344 C 50.503 104.109 58.000 96.422 58.000 97.607 C 58.000 97.994 58.882 97.512 59.960 96.536 C 61.038 95.560 61.826 94.455 61.710 94.079 C 61.396 93.058 68.674 86.899 69.814 87.221 C 70.357 87.375 70.905 87.050 71.034 86.500 C 71.269 85.501 75.277 82.329 75.750 82.768 C 75.888 82.896 75.888 82.931 75.750 82.848 C 75.613 82.764 75.950 82.591 76.500 82.463 C 77.050 82.335 77.332 82.179 77.128 82.115 C 76.923 82.052 77.324 81.315 78.019 80.477 C 78.714 79.640 80.063 79.203 81.017 79.505 C 82.216 79.886 82.926 79.389 83.316 77.898 C 83.692 76.460 84.397 75.938 85.428 76.334 C 86.346 76.686 86.879 76.434 86.738 75.714 C 86.607 75.046 87.272 74.495 88.215 74.489 C 89.159 74.482 90.509 73.719 91.215 72.793 C 91.922 71.868 93.164 70.973 93.976 70.805 C 94.788 70.637 96.084 69.912 96.855 69.192 C 97.627 68.473 98.898 68.131 99.681 68.431 C 100.464 68.731 100.870 68.598 100.583 68.135 C 99.882 67.000 104.867 64.799 106.229 65.642 C 106.872 66.039 107.020 65.841 106.595 65.155 C 105.953 64.115 107.075 63.606 108.587 64.250 C 108.909 64.388 109.117 56.335 109.048 46.356 C 108.929 29.225 108.812 28.184 106.960 27.700 C 105.717 27.375 105.241 27.582 105.663 28.263 "/></g>
<g fill="#1364A1FF" stroke="#1364A1FF">
<path d="M 100.604 32.626 C 76.762 44.851 52.919 63.742 40.462 80.276 C 35.570 86.769 29.018 99.725 26.442 108.000 C 24.325 114.800 24.041 134.922 25.998 139.500 L 27.280 142.500 28.642 138.000 C 30.773 130.956 35.762 121.102 40.795 114.000 C 52.796 97.063 77.823 76.999 100.706 65.972 L 107.912 62.500 107.706 45.795 L 107.500 29.090 100.604 32.626 "/></g>
<g fill="#E6C23BFF" stroke="#E6C23BFF">
<path d="M 35.475 12.288 C 16.654 34.537 6.000 59.152 6.000 80.388 C 6.000 90.499 8.665 101.866 13.161 110.928 L 16.421 117.500 17.641 104.223 C 19.819 80.521 28.699 58.040 43.097 39.772 C 46.669 35.240 47.302 31.922 44.879 30.425 C 44.396 30.127 43.997 29.121 43.994 28.191 C 43.990 27.261 43.401 25.375 42.684 24.000 C 41.966 22.625 40.530 19.138 39.492 16.250 C 37.503 10.716 37.122 10.341 35.475 12.288 "/></g>
<g fill="#0076FFFF" stroke="#0076FFFF">
<path d="M 382.000 146.187 L 382.000 153.874 385.750 153.187 C 390.686 152.283 471.979 152.296 478.750 153.203 L 484.000 153.906 484.000 146.203 L 484.000 138.500 433.000 138.500 L 382.000 138.500 382.000 146.187 "/></g>
<g fill="#0076FFFF" stroke="#0076FFFF">
<path d="M 873.071 19.284 C 871.256 24.785 863.466 37.180 858.009 43.250 C 855.166 46.413 853.256 49.000 853.765 49.000 C 854.274 49.000 857.447 50.782 860.817 52.960 L 866.944 56.920 871.300 51.210 C 873.696 48.070 877.579 42.646 879.928 39.157 C 882.278 35.668 885.731 31.911 887.600 30.808 C 889.470 29.705 891.000 28.475 891.000 28.076 C 891.000 26.618 883.198 20.817 876.326 17.166 C 874.358 16.120 874.049 16.321 873.071 19.284 "/></g>
<g fill="#0076FFFF" stroke="#0076FFFF">
<path d="M 804.211 21.661 C 800.795 24.112 798.003 26.429 798.006 26.809 C 798.009 27.189 800.515 30.636 803.575 34.470 C 806.635 38.303 811.201 44.378 813.721 47.970 C 816.242 51.561 818.654 54.896 819.083 55.381 C 819.804 56.197 833.049 47.298 832.960 46.057 C 832.938 45.751 827.858 39.134 821.671 31.352 L 810.422 17.205 804.211 21.661 "/></g>
<g fill="#E5BF3822" stroke="#E5BF3822">
<path d="M 40.062 16.157 C 41.219 19.093 42.575 21.988 43.074 22.590 C 43.574 23.191 43.687 23.980 43.325 24.342 C 42.963 24.704 43.192 25.000 43.833 25.000 C 44.475 25.000 44.947 25.338 44.882 25.750 C 44.816 26.163 44.851 26.725 44.958 27.000 C 45.065 27.275 45.297 28.175 45.473 29.000 C 45.648 29.825 46.089 31.643 46.452 33.039 C 46.967 35.024 46.336 36.553 43.565 40.039 C 41.615 42.493 40.015 45.063 40.010 45.750 C 40.004 46.438 39.587 47.000 39.082 47.000 C 37.930 47.000 33.667 53.801 33.667 55.638 C 33.667 56.387 33.357 57.000 32.978 57.000 C 32.343 57.000 24.000 74.118 24.000 75.421 C 24.000 75.740 24.417 76.000 24.927 76.000 C 26.083 76.000 28.619 71.012 29.498 67.010 C 29.861 65.355 30.545 64.000 31.017 64.000 C 31.489 64.000 31.816 63.201 31.742 62.224 C 31.668 61.248 32.540 59.110 33.680 57.474 C 34.819 55.839 37.926 51.125 40.584 47.000 C 43.242 42.875 46.222 38.912 47.208 38.193 C 49.134 36.789 49.640 32.514 48.000 31.500 C 47.450 31.160 47.000 30.009 47.000 28.941 C 47.000 27.873 46.625 27.000 46.167 27.000 C 45.708 27.000 45.328 26.438 45.321 25.750 C 45.314 25.063 44.387 22.475 43.260 20.000 C 42.134 17.525 41.052 14.637 40.856 13.583 C 40.660 12.528 39.928 11.475 39.229 11.243 C 38.361 10.953 38.624 12.510 40.062 16.157 "/></g>
<g fill="#0076FF80" stroke="#0076FF80">
<path d="M 593.434 142.500 L 593.500 151.500 632.250 151.494 L 671.000 151.488 632.539 151.244 L 594.078 151.000 593.723 142.250 L 593.369 133.500 593.434 142.500 "/></g>
<g fill="#0076FFC0" stroke="#0076FFC0">
<path d="M 819.432 113.747 L 819.500 121.500 844.750 121.491 L 870.000 121.481 845.042 121.241 L 820.084 121.000 819.725 113.497 L 819.365 105.993 819.432 113.747 "/></g>
<g fill="#0076FF40" stroke="#0076FF40">
<path d="M 844.500 106.741 L 869.000 107.035 869.221 114.017 L 869.441 121.000 869.471 113.750 L 869.500 106.500 844.750 106.473 L 819.999 106.446 844.500 106.741 "/></g>
<g fill="#C019671F" stroke="#C019671F">
<path d="M 151.500 61.916 C 143.666 64.724 142.744 65.278 144.376 66.191 C 145.309 66.713 146.000 66.721 146.000 66.210 C 146.000 64.997 150.926 62.836 152.075 63.546 C 152.584 63.861 153.000 63.647 153.000 63.070 C 153.000 62.494 154.125 62.116 155.500 62.229 L 158.000 62.436 158.000 79.635 C 158.000 92.458 157.682 96.962 156.750 97.338 C 156.003 97.639 156.205 97.874 157.250 97.921 C 158.856 97.994 159.000 96.482 159.000 79.500 L 159.000 61.000 156.250 61.100 C 154.738 61.155 152.600 61.522 151.500 61.916 "/></g>
<g fill="#1466A22A" stroke="#1466A22A">
<path d="M 104.441 28.555 C 102.566 30.057 102.574 30.074 104.684 29.055 C 109.029 26.956 109.085 27.179 108.955 45.918 C 108.887 55.772 109.094 63.572 109.416 63.251 C 109.737 62.930 110.000 54.642 110.000 44.833 C 110.000 28.295 109.869 27.000 108.191 27.000 C 107.196 27.000 105.509 27.700 104.441 28.555 "/></g>
<g fill="#E5BF3822" stroke="#E5BF3822">
<path d="M 25.000 21.847 C 25.000 22.313 24.100 23.732 23.000 25.000 C 21.900 26.268 21.000 27.912 21.000 28.653 C 21.000 29.394 20.559 30.000 20.019 30.000 C 19.480 30.000 18.756 31.125 18.411 32.500 C 18.066 33.875 17.382 35.000 16.892 35.000 C 16.401 35.000 16.000 35.638 16.000 36.417 C 16.000 37.196 15.609 37.983 15.132 38.167 C 13.773 38.689 12.703 43.000 13.933 43.000 C 14.891 43.000 15.168 42.256 14.915 40.362 C 14.868 40.011 15.218 39.448 15.694 39.112 C 16.688 38.409 25.000 25.181 25.000 24.302 C 25.000 23.982 25.788 23.123 26.750 22.392 C 28.417 21.127 28.417 21.062 26.750 21.032 C 25.788 21.014 25.000 21.381 25.000 21.847 "/></g>
<g fill="#0076FFC0" stroke="#0076FFC0">
<path d="M 423.439 89.298 C 423.165 90.012 423.081 96.875 423.251 104.548 L 423.561 118.500 423.781 103.653 L 424.000 88.807 429.001 89.153 C 431.751 89.344 434.001 89.163 434.001 88.750 C 433.999 87.390 423.972 87.910 423.439 89.298 "/></g>
<g fill="#0076FFC0" stroke="#0076FFC0">
<path d="M 415.156 65.958 C 425.967 66.256 434.603 66.163 434.347 65.750 C 434.091 65.338 425.246 65.094 414.691 65.208 L 395.500 65.417 415.156 65.958 "/></g>
<g fill="#C019671F" stroke="#C019671F">
<path d="M 51.735 118.267 C 45.647 123.375 36.965 134.848 40.021 133.746 C 41.172 133.331 41.850 132.566 41.528 132.046 C 41.207 131.526 41.869 130.605 43.000 130.000 C 44.131 129.395 44.814 128.508 44.518 128.030 C 44.223 127.552 45.223 126.183 46.740 124.990 C 48.258 123.796 49.314 122.747 49.087 122.659 C 48.859 122.572 50.434 120.648 52.587 118.385 L 56.500 114.269 51.735 118.267 "/></g>
<g fill="#0076FF40" stroke="#0076FF40">
<path d="M 630.499 40.737 C 640.876 40.920 648.061 41.444 648.150 42.023 C 648.233 42.560 648.345 42.438 648.400 41.750 C 648.476 40.794 644.319 40.492 630.749 40.464 L 612.998 40.429 630.499 40.737 "/></g>
<g fill="#C51E67CD" stroke="#C51E67CD">
<path d="M 153.952 63.160 C 152.778 63.992 152.843 64.078 154.291 63.610 C 155.968 63.068 156.074 64.108 155.953 79.937 C 155.882 89.235 156.089 96.578 156.412 96.255 C 157.312 95.355 157.111 63.187 156.202 62.625 C 155.763 62.354 154.751 62.595 153.952 63.160 "/></g>
<g fill="#C61D6673" stroke="#C61D6673">
<path d="M 157.224 78.700 C 157.026 93.882 156.795 96.020 155.250 96.920 C 154.288 97.481 154.007 97.953 154.628 97.970 C 157.572 98.049 158.046 95.067 157.749 78.368 L 157.448 61.500 157.224 78.700 "/></g>
<g fill="#C019671F" stroke="#C019671F">
<path d="M 108.016 144.057 C 106.099 145.126 103.962 146.000 103.266 146.000 C 102.570 146.000 102.000 146.450 102.000 147.000 C 102.000 147.550 101.506 148.000 100.901 148.000 C 100.297 148.000 98.384 148.627 96.651 149.393 C 94.918 150.159 92.637 151.074 91.583 151.426 C 90.122 151.913 89.943 152.343 90.833 153.233 C 91.630 154.030 92.000 154.054 92.000 153.308 C 92.000 152.335 95.852 150.703 98.500 150.556 C 99.050 150.525 100.099 149.933 100.831 149.241 C 101.562 148.548 102.575 148.237 103.081 148.550 C 103.586 148.862 104.000 148.566 104.000 147.892 C 104.000 147.218 104.279 146.945 104.619 147.286 C 104.960 147.626 105.896 147.247 106.700 146.443 C 107.504 145.639 108.644 145.280 109.235 145.645 C 109.872 146.039 110.018 145.839 109.595 145.155 C 108.958 144.124 110.153 143.551 112.250 143.882 C 112.663 143.947 113.000 143.550 113.000 143.000 C 113.000 141.611 112.039 141.814 108.016 144.057 "/></g>
<g fill="#C019671F" stroke="#C019671F">
<path d="M 134.288 126.714 C 133.132 127.696 131.192 129.175 129.975 130.000 C 128.759 130.825 126.805 132.475 125.632 133.667 C 124.459 134.858 126.279 133.872 129.675 131.474 C 134.911 127.778 136.032 127.334 137.048 128.557 C 137.988 129.691 137.961 130.000 136.922 130.000 C 135.915 130.000 135.878 130.278 136.767 131.167 C 138.012 132.412 138.596 131.541 139.202 127.536 C 139.600 124.913 136.932 124.467 134.288 126.714 "/></g>
<g fill="#C019671F" stroke="#C019671F">
<path d="M 84.579 127.146 C 83.523 128.161 82.455 128.788 82.205 128.538 C 81.956 128.289 80.923 129.078 79.909 130.293 C 78.896 131.507 78.052 132.167 78.033 131.759 C 78.015 131.352 76.650 132.431 75.000 134.157 C 73.350 135.884 71.947 137.117 71.882 136.898 C 71.816 136.679 71.816 136.838 71.882 137.250 C 71.947 137.663 71.298 138.000 70.441 138.000 C 69.584 138.000 69.141 138.419 69.458 138.932 C 69.774 139.444 69.026 140.569 67.794 141.432 C 66.563 142.294 66.041 143.000 66.635 143.000 C 67.228 143.000 69.963 140.863 72.712 138.250 C 78.482 132.765 79.342 132.083 83.779 129.468 C 85.582 128.405 86.932 127.032 86.779 126.418 C 86.612 125.747 85.731 126.039 84.579 127.146 "/></g>
<g fill="#E5BF3822" stroke="#E5BF3822">
<path d="M 4.000 80.500 C 4.000 85.500 4.412 89.000 5.000 89.000 C 5.588 89.000 6.000 85.500 6.000 80.500 C 6.000 75.500 5.588 72.000 5.000 72.000 C 4.412 72.000 4.000 75.500 4.000 80.500 "/></g>
<g fill="#0076FF40" stroke="#0076FF40">
<path d="M 484.404 24.000 L 484.500 26.500 499.250 26.484 L 514.000 26.469 499.566 26.234 C 485.472 26.006 485.123 25.947 484.720 23.750 C 484.361 21.792 484.320 21.825 484.404 24.000 "/></g>
<g fill="#C019671F" stroke="#C019671F">
<path d="M 87.000 153.042 C 86.175 153.586 81.332 153.964 76.237 153.882 C 69.257 153.770 67.308 154.011 68.329 154.858 C 69.074 155.477 69.905 155.761 70.176 155.491 C 70.447 155.220 72.751 155.387 75.296 155.863 C 77.842 156.339 80.054 156.356 80.212 155.902 C 80.370 155.449 82.423 154.947 84.774 154.789 C 87.513 154.604 88.949 154.061 88.774 153.276 C 88.583 152.422 88.047 152.352 87.000 153.042 "/></g>
<g fill="#C019671F" stroke="#C019671F">
<path d="M 34.474 140.491 C 33.388 142.960 32.202 144.985 31.838 144.991 C 31.474 144.996 31.301 146.136 31.453 147.524 C 31.606 148.913 31.341 150.289 30.865 150.583 C 29.608 151.360 29.806 156.422 31.221 159.685 C 32.355 162.298 32.388 162.208 31.679 158.426 C 31.248 156.127 31.341 153.232 31.894 151.779 C 32.432 150.364 32.671 149.004 32.424 148.757 C 31.763 148.096 35.804 139.339 37.599 137.544 C 38.796 136.347 38.840 136.000 37.796 136.000 C 37.055 136.000 35.560 138.021 34.474 140.491 "/></g>
<g fill="#0076FF40" stroke="#0076FF40">
<path d="M 467.167 24.500 C 467.028 25.748 464.475 26.040 452.000 26.235 L 437.000 26.470 452.250 26.485 C 466.144 26.499 467.493 26.344 467.417 24.750 C 467.371 23.788 467.258 23.675 467.167 24.500 "/></g>
<g fill="#0076FF80" stroke="#0076FF80">
<path d="M 436.345 41.543 C 436.019 42.392 436.034 43.367 436.376 43.710 C 436.719 44.053 437.000 43.595 437.000 42.693 C 437.000 41.257 438.904 41.014 452.250 40.748 L 467.500 40.444 452.219 40.222 C 439.231 40.033 436.848 40.232 436.345 41.543 "/></g>
<g fill="#E5BF3822" stroke="#E5BF3822">
<path d="M 9.183 52.217 C 8.533 52.868 8.000 54.120 8.000 55.000 C 8.000 55.880 7.566 57.034 7.037 57.563 C 6.507 58.093 5.803 61.221 5.473 64.513 C 5.000 69.235 5.115 70.117 6.020 68.689 C 6.651 67.693 6.924 66.245 6.627 65.471 C 6.330 64.697 6.557 63.774 7.131 63.419 C 7.705 63.064 7.952 61.925 7.681 60.887 C 7.409 59.849 7.670 59.000 8.260 59.000 C 8.850 59.000 9.051 58.718 8.707 58.373 C 8.362 58.028 8.770 56.412 9.614 54.780 C 11.278 51.562 11.071 50.329 9.183 52.217 "/></g>
<g fill="#E5BF3822" stroke="#E5BF3822">
<path d="M 5.379 95.674 C 5.659 98.519 6.330 101.669 6.871 102.674 C 7.412 103.678 8.098 105.288 8.396 106.250 C 8.694 107.213 9.413 108.000 9.994 108.000 C 10.638 108.000 10.470 106.875 9.566 105.127 C 8.748 103.547 8.362 101.972 8.707 101.627 C 9.051 101.282 8.921 100.999 8.417 100.998 C 7.913 100.997 7.384 99.376 7.243 97.396 C 7.101 95.416 6.509 93.054 5.928 92.148 C 5.138 90.917 4.999 91.810 5.379 95.674 "/></g>
<g fill="#C019671F" stroke="#C019671F">
<path d="M 144.079 100.794 C 144.036 101.505 143.438 101.974 142.750 101.834 C 142.063 101.695 140.478 102.146 139.229 102.836 C 137.980 103.527 136.556 103.844 136.065 103.540 C 135.573 103.236 135.013 103.460 134.821 104.037 C 134.629 104.614 133.241 105.217 131.737 105.378 C 130.233 105.538 129.302 105.969 129.668 106.335 C 130.034 106.701 129.385 107.000 128.226 107.000 C 127.066 107.000 125.829 107.468 125.475 108.040 C 124.719 109.264 129.958 108.238 131.450 106.871 C 131.973 106.392 133.029 106.000 133.799 106.000 C 134.568 106.000 136.616 105.373 138.349 104.607 C 140.082 103.841 142.325 102.941 143.333 102.607 C 144.341 102.272 144.939 101.437 144.662 100.749 C 144.271 99.780 144.140 99.789 144.079 100.794 "/></g>
<g fill="#C019671F" stroke="#C019671F">
<path d="M 81.727 96.000 C 80.329 97.100 78.923 98.000 78.604 98.000 C 78.284 98.000 77.230 98.679 76.261 99.508 C 75.293 100.338 74.153 101.003 73.730 100.986 C 73.306 100.970 71.736 102.091 70.240 103.478 C 68.744 104.865 67.178 106.000 66.760 106.000 C 66.342 106.000 66.000 106.775 66.000 107.723 C 66.000 109.133 66.284 109.039 67.568 107.206 C 68.431 105.974 69.509 105.196 69.964 105.478 C 70.418 105.759 71.059 105.288 71.388 104.431 C 71.717 103.574 72.439 103.153 72.993 103.496 C 73.547 103.838 74.000 103.700 74.000 103.188 C 74.000 102.677 76.813 100.405 80.250 98.138 C 83.688 95.872 85.998 94.014 85.385 94.009 C 84.772 94.004 83.126 94.900 81.727 96.000 "/></g>
<g fill="#1466A22A" stroke="#1466A22A">
<path d="M 73.435 83.883 C 69.071 87.099 63.475 91.622 61.000 93.934 C 58.364 96.397 59.840 95.490 64.562 91.746 C 68.997 88.231 74.766 83.881 77.383 82.081 C 79.999 80.280 81.967 78.634 81.755 78.422 C 81.543 78.210 77.799 80.667 73.435 83.883 "/></g>
<g fill="#E5BF3822" stroke="#E5BF3822">
<path d="M 18.193 112.250 C 18.010 117.696 16.621 119.781 15.362 116.500 C 15.045 115.675 14.384 115.000 13.893 115.000 C 12.352 115.000 12.916 116.916 15.100 119.100 C 18.122 122.122 19.162 120.351 18.744 112.898 L 18.385 106.500 18.193 112.250 "/></g>
<g fill="#C019671F" stroke="#C019671F">
<path d="M 94.000 168.000 C 94.000 168.615 93.581 168.859 93.069 168.543 C 92.557 168.226 91.837 168.455 91.468 169.052 C 91.099 169.648 90.145 169.886 89.347 169.580 C 88.435 169.230 88.157 169.444 88.597 170.157 C 89.087 170.950 88.500 171.091 86.649 170.627 C 84.958 170.202 84.000 170.369 84.000 171.088 C 84.000 171.707 83.339 171.960 82.532 171.651 C 81.725 171.341 80.761 171.578 80.390 172.179 C 79.565 173.513 88.986 172.332 90.450 170.918 C 90.973 170.413 92.435 170.000 93.700 170.000 C 96.058 170.000 96.785 168.603 95.000 167.500 C 94.450 167.160 94.000 167.385 94.000 168.000 "/></g>
<g fill="#C019671F" stroke="#C019671F">
<path d="M 114.000 111.683 C 114.000 112.663 111.053 114.114 108.500 114.391 C 107.950 114.451 106.901 115.067 106.169 115.759 C 105.438 116.452 104.425 116.763 103.919 116.450 C 103.414 116.138 103.000 116.385 103.000 117.000 C 103.000 117.615 102.550 117.840 102.000 117.500 C 101.450 117.160 101.000 117.385 101.000 118.000 C 101.000 118.615 100.550 118.840 100.000 118.500 C 99.450 118.160 99.000 118.359 99.000 118.941 C 99.000 120.423 99.412 120.329 105.814 117.389 C 108.941 115.954 112.586 114.362 113.913 113.852 C 115.747 113.148 116.047 112.647 115.163 111.763 C 114.377 110.977 114.000 110.951 114.000 111.683 "/></g>
<g fill="#E5BF3822" stroke="#E5BF3822">
<path d="M 35.500 10.000 C 35.840 10.550 35.612 11.000 34.994 11.000 C 33.745 11.000 28.780 16.482 28.000 18.724 C 27.725 19.515 30.019 17.650 33.099 14.580 C 37.313 10.380 38.225 9.000 36.790 9.000 C 35.740 9.000 35.160 9.450 35.500 10.000 "/></g>
<g fill="#1466A22A" stroke="#1466A22A">
<path d="M 22.598 114.736 C 21.782 115.551 21.838 132.414 22.663 134.565 C 23.028 135.515 23.297 131.308 23.261 125.216 C 23.225 119.123 22.926 114.407 22.598 114.736 "/></g>
<g fill="#0076FF80" stroke="#0076FF80">
<path d="M 280.187 141.691 C 280.084 147.846 280.338 153.092 280.750 153.349 C 281.163 153.605 281.247 148.569 280.937 142.158 L 280.375 130.500 280.187 141.691 "/></g>
<g fill="#C019671F" stroke="#C019671F">
<path d="M 35.685 165.648 C 35.346 165.988 36.151 167.118 37.475 168.159 C 41.951 171.680 51.103 174.593 49.490 171.984 C 49.144 171.425 48.474 171.207 48.000 171.500 C 47.526 171.793 46.868 171.595 46.537 171.060 C 46.206 170.525 45.372 170.304 44.683 170.568 C 43.994 170.833 42.433 170.120 41.215 168.986 C 39.997 167.851 38.986 167.277 38.968 167.711 C 38.951 168.145 38.344 167.719 37.619 166.766 C 36.895 165.812 36.025 165.309 35.685 165.648 "/></g>
<g fill="#E5BF3822" stroke="#E5BF3822">
<path d="M 19.290 96.000 C 19.577 97.100 19.405 98.000 18.906 98.000 C 18.408 98.000 18.052 99.688 18.116 101.750 C 18.180 103.813 18.438 104.713 18.689 103.750 C 18.941 102.788 19.564 102.000 20.073 102.000 C 20.583 102.000 21.000 100.200 21.000 98.000 C 21.000 95.721 20.519 94.000 19.883 94.000 C 19.259 94.000 18.997 94.882 19.290 96.000 "/></g>
<g fill="#C019671F" stroke="#C019671F">
<path d="M 122.500 74.000 C 120.300 75.063 117.938 75.947 117.250 75.966 C 116.563 75.985 116.000 76.398 116.000 76.883 C 116.000 77.369 115.007 78.026 113.794 78.344 C 112.580 78.661 111.843 79.176 112.155 79.489 C 112.468 79.801 114.923 78.954 117.612 77.607 C 120.300 76.259 123.164 75.009 123.976 74.828 C 125.633 74.460 128.600 71.981 127.321 72.034 C 126.870 72.053 124.700 72.937 122.500 74.000 "/></g>
<g fill="#0076FFC0" stroke="#0076FFC0">
<path d="M 554.015 87.250 C 554.002 88.786 555.081 89.000 562.833 89.000 C 567.692 89.000 571.956 88.711 572.309 88.358 C 572.662 88.005 569.069 87.809 564.325 87.923 C 558.099 88.073 555.467 87.765 554.865 86.815 C 554.235 85.822 554.027 85.929 554.015 87.250 "/></g>
<g fill="#0076FF40" stroke="#0076FF40">
<path d="M 294.408 84.225 C 294.597 85.155 297.286 85.494 304.333 85.477 L 314.000 85.455 304.583 85.227 C 299.386 85.102 294.939 84.541 294.658 83.975 C 294.379 83.411 294.266 83.524 294.408 84.225 "/></g>
<g fill="#0076FF80" stroke="#0076FF80">
<path d="M 230.200 26.500 L 230.000 30.000 223.000 30.221 L 216.000 30.441 223.250 30.471 L 230.500 30.500 230.450 26.750 C 230.401 23.101 230.395 23.095 230.200 26.500 "/></g>
<g fill="#C019671F" stroke="#C019671F">
<path d="M 99.592 85.297 C 94.760 88.021 92.000 90.189 92.000 91.261 C 92.000 91.710 92.968 91.176 94.151 90.074 C 95.335 88.971 96.648 88.283 97.071 88.544 C 97.493 88.805 98.447 88.410 99.190 87.667 C 99.933 86.924 101.656 85.719 103.018 84.990 C 104.380 84.261 105.046 83.536 104.497 83.379 C 103.949 83.222 101.742 84.085 99.592 85.297 "/></g>
<g fill="#0076FFC0" stroke="#0076FFC0">
<path d="M 515.000 83.059 L 505.500 83.617 515.333 83.809 C 520.742 83.914 525.017 83.663 524.833 83.250 C 524.650 82.838 520.225 82.751 515.000 83.059 "/></g>
<g fill="#0076FF80" stroke="#0076FF80">
<path d="M 708.150 87.000 C 708.066 87.562 704.056 88.099 699.000 88.226 L 690.000 88.452 699.250 88.476 C 706.048 88.494 708.473 88.169 708.400 87.250 C 708.345 86.563 708.233 86.450 708.150 87.000 "/></g>
<g fill="#0076FF40" stroke="#0076FF40">
<path d="M 328.000 114.325 C 327.725 114.600 327.776 119.027 328.114 124.162 L 328.728 133.500 328.614 123.663 C 328.551 118.252 328.275 114.051 328.000 114.325 "/></g>
<g fill="#0076FF40" stroke="#0076FF40">
<path d="M 794.225 71.500 C 794.100 76.224 793.556 80.067 793.000 80.150 C 792.450 80.233 792.563 80.345 793.250 80.400 C 794.164 80.473 794.493 78.149 794.475 71.750 L 794.450 63.000 794.225 71.500 "/></g>
<g fill="#0076FF40" stroke="#0076FF40">
<path d="M 796.975 33.658 C 797.539 33.938 798.101 37.954 798.225 42.583 L 798.450 51.000 798.475 42.333 C 798.493 36.095 798.143 33.594 797.225 33.408 C 796.524 33.266 796.411 33.379 796.975 33.658 "/></g>
<g fill="#1466A22A" stroke="#1466A22A">
<path d="M 79.230 42.750 C 75.260 45.363 72.009 47.798 72.006 48.162 C 72.003 48.526 75.660 46.389 80.132 43.412 C 84.605 40.435 87.856 38.000 87.356 38.000 C 86.857 38.000 83.200 40.138 79.230 42.750 "/></g>
<g fill="#0076FF80" stroke="#0076FF80">
<path d="M 669.651 174.250 C 669.908 174.663 674.254 174.920 679.309 174.822 L 688.500 174.644 678.842 174.072 C 673.530 173.757 669.394 173.838 669.651 174.250 "/></g>
<g fill="#0076FF40" stroke="#0076FF40">
<path d="M 705.075 33.342 L 705.649 42.500 705.825 33.809 C 705.921 29.029 705.663 24.908 705.250 24.651 C 704.838 24.395 704.759 28.305 705.075 33.342 "/></g>
<g fill="#1466A22A" stroke="#1466A22A">
<path d="M 46.661 108.686 C 43.450 112.337 40.525 116.135 40.161 117.126 C 39.797 118.117 40.937 117.032 42.694 114.714 C 44.451 112.396 47.376 108.598 49.194 106.274 C 51.012 103.950 49.872 105.036 46.661 108.686 "/></g>
<g fill="#0076FFC0" stroke="#0076FFC0">
<path d="M 268.996 36.752 C 268.723 41.291 268.856 45.004 269.290 45.002 C 269.725 45.001 269.948 41.288 269.786 36.750 L 269.491 28.500 268.996 36.752 "/></g>
<g fill="#0076FF80" stroke="#0076FF80">
<path d="M 729.172 104.691 C 729.078 109.196 729.338 113.092 729.750 113.349 C 730.163 113.605 730.240 109.919 729.922 105.158 L 729.345 96.500 729.172 104.691 "/></g>
<g fill="#C019671F" stroke="#C019671F">
<path d="M 117.688 155.612 C 116.691 156.948 115.501 157.809 115.043 157.526 C 114.584 157.243 113.941 157.712 113.612 158.569 C 113.283 159.426 112.608 159.876 112.112 159.569 C 111.616 159.262 110.952 159.684 110.636 160.506 C 109.743 162.834 111.414 162.278 115.114 159.016 C 116.977 157.375 118.870 156.025 119.323 156.016 C 119.776 156.007 120.001 155.366 119.823 154.591 C 119.596 153.601 118.962 153.904 117.688 155.612 "/></g>
<g fill="#C019671F" stroke="#C019671F">
<path d="M 134.055 137.481 C 132.710 139.899 131.178 141.610 130.650 141.284 C 130.123 140.958 129.995 141.183 130.367 141.784 C 130.738 142.385 130.245 143.341 129.271 143.908 C 127.847 144.737 127.800 144.945 129.034 144.970 C 129.878 144.986 131.419 143.538 132.459 141.750 C 133.499 139.963 134.710 138.255 135.150 137.956 C 135.590 137.657 136.074 136.439 136.225 135.249 C 136.394 133.920 135.557 134.781 134.055 137.481 "/></g>
<g fill="#C019671F" stroke="#C019671F">
<path d="M 95.000 121.226 C 95.000 121.716 94.550 121.840 94.000 121.500 C 93.450 121.160 93.000 121.434 93.000 122.108 C 93.000 122.782 92.727 123.060 92.394 122.727 C 92.060 122.393 90.823 123.050 89.644 124.186 C 87.274 126.469 87.634 126.409 93.746 123.500 C 98.119 121.419 99.063 120.333 96.500 120.333 C 95.675 120.333 95.000 120.735 95.000 121.226 "/></g>
<g fill="#1466A22A" stroke="#1466A22A">
<path d="M 24.653 142.000 C 24.972 143.925 25.428 145.709 25.665 145.965 C 26.750 147.134 29.521 144.004 29.706 141.399 C 29.910 138.533 29.901 138.537 28.927 141.750 C 28.386 143.538 27.571 145.000 27.116 145.000 C 26.661 145.000 25.791 143.538 25.181 141.750 L 24.073 138.500 24.653 142.000 "/></g>
<g fill="#E5BF3822" stroke="#E5BF3822">
<path d="M 22.413 80.750 C 21.300 85.912 21.328 86.524 22.609 84.904 C 24.064 83.063 25.197 77.000 24.086 77.000 C 23.611 77.000 22.858 78.688 22.413 80.750 "/></g>
<g fill="#0076FF40" stroke="#0076FF40">
<path d="M 312.162 65.250 L 312.323 72.500 312.912 65.249 C 313.235 61.260 313.163 57.998 312.750 57.999 C 312.338 57.999 312.073 61.263 312.162 65.250 "/></g>
<g fill="#1466A22A" stroke="#1466A22A">
<path d="M 64.033 53.813 C 60.751 56.391 58.051 58.854 58.033 59.286 C 58.015 59.719 60.710 57.818 64.021 55.062 C 71.787 48.599 71.796 47.715 64.033 53.813 "/></g>
<g fill="#E5C03AB4" stroke="#E5C03AB4">
<path d="M 17.193 111.309 C 17.057 115.409 16.660 116.908 15.845 116.405 C 15.130 115.962 14.962 116.130 15.405 116.845 C 17.146 119.663 18.075 117.637 17.740 111.750 L 17.385 105.500 17.193 111.309 "/></g>
<g fill="#C019671F" stroke="#C019671F">
<path d="M 65.868 144.500 C 64.516 146.637 63.913 151.828 64.941 152.464 C 65.602 152.872 66.056 151.780 66.150 149.559 C 66.233 147.602 66.345 145.438 66.400 144.750 C 66.458 144.028 66.233 143.922 65.868 144.500 "/></g>
<g fill="#C019671F" stroke="#C019671F">
<path d="M 117.760 138.377 C 115.703 139.545 114.015 141.063 114.010 141.750 C 114.004 142.488 114.833 142.167 116.036 140.964 C 117.157 139.843 118.436 139.151 118.879 139.425 C 119.322 139.699 120.093 139.097 120.592 138.088 C 121.420 136.416 121.170 136.441 117.760 138.377 "/></g>
<g fill="#E5BF3822" stroke="#E5BF3822">
<path d="M 10.975 46.565 C 9.779 49.712 9.771 50.000 10.883 50.000 C 11.369 50.000 12.045 49.213 12.384 48.250 C 12.724 47.288 13.263 45.938 13.584 45.250 C 13.904 44.563 13.668 44.000 13.059 44.000 C 12.449 44.000 11.512 45.154 10.975 46.565 "/></g>
<g fill="#C019671F" stroke="#C019671F">
<path d="M 124.500 150.045 L 121.500 153.948 125.321 150.248 C 127.422 148.212 128.772 146.456 128.321 146.345 C 127.869 146.234 126.150 147.899 124.500 150.045 "/></g>
<g fill="#C019671F" stroke="#C019671F">
<path d="M 61.267 110.293 C 59.489 111.507 58.027 112.907 58.017 113.405 C 58.008 113.903 58.947 113.453 60.105 112.405 C 61.263 111.357 62.482 110.652 62.815 110.837 C 63.148 111.022 63.663 110.479 63.960 109.630 C 64.362 108.480 63.674 108.650 61.267 110.293 "/></g>
<g fill="#C019671F" stroke="#C019671F">
<path d="M 153.000 97.907 C 153.000 98.626 152.419 98.991 151.708 98.718 C 150.998 98.446 149.535 98.877 148.458 99.677 C 146.627 101.038 146.695 101.090 149.500 100.482 C 155.017 99.288 155.441 99.041 154.167 97.767 C 153.278 96.878 153.000 96.911 153.000 97.907 "/></g>
<g fill="#1466A22A" stroke="#1466A22A">
<path d="M 39.833 78.242 C 37.816 80.586 36.016 83.053 35.833 83.723 C 35.650 84.393 37.300 82.475 39.500 79.461 C 43.478 74.011 43.479 74.004 39.833 78.242 "/></g>
<g fill="#E5BF3822" stroke="#E5BF3822">
<path d="M 10.393 110.582 C 10.727 111.452 11.000 112.577 11.000 113.082 C 11.000 113.587 11.633 114.000 12.406 114.000 C 13.547 114.000 13.594 113.530 12.656 111.508 C 11.403 108.807 9.397 107.986 10.393 110.582 "/></g>
<g fill="#1466A22A" stroke="#1466A22A">
<path d="M 49.000 67.953 L 44.500 72.556 49.000 67.953 L 53.500 63.350 49.000 67.953 "/></g>
<g fill="#C019671F" stroke="#C019671F">
<path d="M 99.387 166.183 C 99.098 166.650 98.443 166.774 97.931 166.457 C 97.419 166.141 97.000 166.407 97.000 167.048 C 97.000 167.700 97.697 167.947 98.582 167.607 C 99.452 167.273 100.802 167.000 101.582 167.000 C 102.362 167.000 103.000 166.625 103.000 166.167 C 103.000 165.074 100.064 165.087 99.387 166.183 "/></g>
<g fill="#C019671F" stroke="#C019671F">
<path d="M 131.080 70.097 C 129.234 70.833 128.938 71.338 129.830 72.230 C 130.617 73.017 131.000 73.045 131.000 72.317 C 131.000 71.721 132.013 70.925 133.250 70.549 C 134.488 70.173 135.050 69.701 134.500 69.500 C 133.950 69.298 132.411 69.567 131.080 70.097 "/></g>
<g fill="#E5BF3822" stroke="#E5BF3822">
<path d="M 20.839 87.500 C 20.501 88.050 20.324 89.625 20.446 91.000 C 20.624 93.015 20.813 93.172 21.418 91.808 C 22.283 89.861 21.763 85.995 20.839 87.500 "/></g>
<g fill="#0076FFC0" stroke="#0076FFC0">
<path d="M 212.500 56.449 L 208.500 60.559 212.500 56.449 L 216.500 52.338 212.500 56.449 "/></g>
<g fill="#1466A22A" stroke="#1466A22A">
<path d="M 25.718 102.683 C 25.452 103.133 24.959 105.075 24.620 107.000 L 24.006 110.500 25.507 106.587 C 26.843 103.103 26.982 100.545 25.718 102.683 "/></g>
<g fill="#1466A22A" stroke="#1466A22A">
<path d="M 97.275 31.820 C 95.501 32.744 94.151 33.808 94.275 34.185 C 94.399 34.562 96.300 33.777 98.500 32.440 C 103.024 29.692 102.180 29.265 97.275 31.820 "/></g>
<g fill="#0076FFC0" stroke="#0076FFC0">
<path d="M 223.000 66.942 L 219.500 70.562 223.000 66.942 L 226.500 63.323 223.000 66.942 "/></g>
<g fill="#0076FFC0" stroke="#0076FFC0">
<path d="M 733.000 53.942 L 729.500 57.562 733.000 53.942 L 736.500 50.323 733.000 53.942 "/></g>
<g fill="#0076FFC0" stroke="#0076FFC0">
<path d="M 286.000 48.942 L 282.500 52.562 286.000 48.942 L 289.500 45.323 286.000 48.942 "/></g>
<g fill="#0076FF40" stroke="#0076FF40">
<path d="M 213.000 167.942 L 209.500 171.562 213.000 167.942 L 216.500 164.323 213.000 167.942 "/></g>
<g fill="#0076FF40" stroke="#0076FF40">
<path d="M 775.000 161.942 L 771.500 165.562 775.000 161.942 L 778.500 158.323 775.000 161.942 "/></g>
<g fill="#C51E67CD" stroke="#C51E67CD">
<path d="M 124.000 148.942 L 120.500 152.562 124.000 148.942 L 127.500 145.323 124.000 148.942 "/></g>
<g fill="#C019671F" stroke="#C019671F">
<path d="M 104.989 163.857 C 103.743 165.190 103.790 165.294 105.365 164.690 C 106.354 164.311 107.577 164.000 108.082 164.000 C 108.587 164.000 109.000 163.625 109.000 163.167 C 109.000 161.796 106.515 162.223 104.989 163.857 "/></g>
<g fill="#C019671F" stroke="#C019671F">
<path d="M 119.500 110.603 C 117.850 111.388 117.324 111.798 118.332 111.515 C 119.339 111.232 120.839 111.000 121.665 111.000 C 122.491 111.000 123.017 110.589 122.833 110.088 C 122.650 109.586 121.150 109.817 119.500 110.603 "/></g>
<g fill="#C019671F" stroke="#C019671F">
<path d="M 139.000 67.279 C 137.550 67.884 137.130 68.385 138.000 68.473 C 138.825 68.555 140.132 68.145 140.904 67.561 C 141.676 66.978 142.576 66.709 142.904 66.964 C 143.232 67.218 143.050 67.159 142.500 66.831 C 141.950 66.503 140.375 66.705 139.000 67.279 "/></g>
<g fill="#0076FFC0" stroke="#0076FFC0">
<path d="M 749.000 159.778 C 749.000 160.244 750.442 161.948 752.205 163.563 L 755.410 166.500 752.205 162.715 C 750.442 160.634 749.000 159.312 749.000 159.778 "/></g>
<g fill="#0076FFC0" stroke="#0076FFC0">
<path d="M 248.500 141.500 L 252.000 145.000 248.500 141.500 L 245.000 138.000 248.500 141.500 "/></g>
<g fill="#0076FF40" stroke="#0076FF40">
<path d="M 238.500 153.500 L 242.000 157.000 238.500 153.500 L 235.000 150.000 238.500 153.500 "/></g>
<g fill="#1466A22A" stroke="#1466A22A">
<path d="M 86.079 75.411 C 84.197 76.560 83.297 77.391 84.079 77.258 C 84.860 77.126 86.400 76.185 87.500 75.169 C 89.132 73.661 88.871 73.705 86.079 75.411 "/></g>
<g fill="#0076FF80" stroke="#0076FF80">
<path d="M 203.500 152.435 L 200.500 155.564 203.500 152.435 L 206.500 149.305 203.500 152.435 "/></g>
<g fill="#C61D6673" stroke="#C61D6673">
<path d="M 123.500 150.435 L 120.500 153.564 123.500 150.435 L 126.500 147.305 123.500 150.435 "/></g>
<g fill="#C61D6673" stroke="#C61D6673">
<path d="M 63.647 148.862 C 63.008 150.631 63.246 151.634 64.592 152.862 C 66.199 154.326 66.262 154.328 65.183 152.883 C 64.520 151.994 64.094 150.194 64.238 148.883 L 64.500 146.500 63.647 148.862 "/></g>
<g fill="#0076FF10" stroke="#0076FF10">
<path d="M 285.500 48.435 L 282.500 51.564 285.500 48.435 L 288.500 45.305 285.500 48.435 "/></g>
<g fill="#C019671F" stroke="#C019671F">
<path d="M 88.250 91.662 C 87.563 91.940 87.000 92.804 87.000 93.583 C 87.000 94.611 87.549 94.451 89.000 93.000 C 90.960 91.040 90.745 90.655 88.250 91.662 "/></g>
<g fill="#C019671F" stroke="#C019671F">
<path d="M 108.080 81.178 C 106.112 81.896 105.906 82.288 106.977 83.280 C 108.015 84.242 108.144 84.236 107.588 83.250 C 107.155 82.483 107.484 82.000 108.441 82.000 C 109.298 82.000 110.113 81.616 110.250 81.147 C 110.388 80.678 109.411 80.692 108.080 81.178 "/></g>
<g fill="#0076FF40" stroke="#0076FF40">
<path d="M 252.473 43.956 C 252.833 44.539 253.928 44.564 255.282 44.019 C 257.376 43.177 257.342 43.123 254.691 43.063 C 253.146 43.029 252.148 43.430 252.473 43.956 "/></g>
<g fill="#C61D6673" stroke="#C61D6673">
<path d="M 52.500 173.000 C 53.600 173.473 55.175 173.859 56.000 173.859 C 56.945 173.859 56.761 173.542 55.500 173.000 C 54.400 172.527 52.825 172.141 52.000 172.141 C 51.055 172.141 51.239 172.458 52.500 173.000 "/></g>
<g fill="#0076FF40" stroke="#0076FF40">
<path d="M 675.429 72.571 C 676.857 74.000 677.000 74.000 677.000 72.571 C 677.000 71.707 676.293 71.000 675.429 71.000 C 674.000 71.000 674.000 71.143 675.429 72.571 "/></g>
<g fill="#1466A22A" stroke="#1466A22A">
<path d="M 92.488 71.416 C 90.549 72.864 90.556 72.886 92.791 72.323 C 94.051 72.005 94.946 71.337 94.779 70.838 C 94.613 70.339 93.582 70.599 92.488 71.416 "/></g>
<g fill="#1466A22A" stroke="#1466A22A">
<path d="M 98.000 68.642 C 96.625 69.350 96.005 69.945 96.623 69.965 C 97.241 69.984 98.366 69.405 99.123 68.678 C 100.266 67.580 100.075 67.574 98.000 68.642 "/></g>
<g fill="#1466A22A" stroke="#1466A22A">
<path d="M 104.000 65.642 C 102.625 66.350 102.005 66.945 102.623 66.965 C 103.241 66.984 104.366 66.405 105.123 65.678 C 106.266 64.580 106.075 64.574 104.000 65.642 "/></g>
<g fill="#1466A22A" stroke="#1466A22A">
<path d="M 90.250 35.662 C 89.563 35.940 89.000 36.605 89.000 37.140 C 89.000 37.675 90.000 37.413 91.223 36.557 C 93.358 35.061 92.865 34.607 90.250 35.662 "/></g>
<g fill="#C51E67CD" stroke="#C51E67CD">
<path d="M 126.000 106.343 C 123.645 107.330 123.632 107.376 125.772 107.129 C 127.022 106.985 128.147 106.513 128.272 106.081 C 128.397 105.648 127.375 105.766 126.000 106.343 "/></g>
<g fill="#C61D6673" stroke="#C61D6673">
<path d="M 75.000 173.000 C 73.172 174.181 74.751 174.181 77.500 173.000 C 78.819 172.433 78.989 172.122 78.000 172.086 C 77.175 172.055 75.825 172.467 75.000 173.000 "/></g>
<g fill="#C61D6673" stroke="#C61D6673">
<path d="M 53.500 118.410 L 51.500 120.567 53.500 118.410 L 55.500 116.253 53.500 118.410 "/></g>
</svg>
