<?xml version="1.0" encoding="utf-8"?>
<!DOCTYPE svg PUBLIC "-//W3C//DTD SVG 20010904//EN" "http://www.w3.org/TR/2001/REC-SVG-20010904/DTD/svg10.dtd">
<svg version="1.0" xmlns="http://www.w3.org/2000/svg" width="902pt" height="302pt" viewBox="0 0 902 302" style="" preserveAspectRatio="xMidYMid meet">
<g fill="#0076FFFF" stroke="#0076FFFF">
<path d="M 419.407 69.250 C 419.681 71.038 420.179 75.366 420.515 78.869 L 421.126 85.238 398.063 84.840 L 375.000 84.443 375.000 92.328 C 375.000 99.450 375.170 100.143 376.750 99.484 C 377.713 99.083 387.838 98.524 399.250 98.243 L 420.000 97.733 419.986 102.116 C 419.979 104.527 419.685 107.576 419.333 108.890 L 418.693 111.281 401.597 110.660 C 392.193 110.319 383.375 109.775 382.000 109.451 L 379.500 108.863 379.500 125.932 L 379.500 143.000 388.000 143.001 L 396.500 143.002 396.156 133.001 L 395.813 123.000 414.740 123.000 C 425.149 123.000 433.946 123.280 434.288 123.622 C 434.630 123.964 433.765 126.503 432.366 129.265 L 429.821 134.286 417.931 133.738 L 406.042 133.190 406.771 140.845 C 407.715 150.754 407.705 172.337 406.753 182.366 L 406.006 190.232 408.753 189.499 C 412.679 188.450 497.067 187.663 498.050 188.666 C 498.499 189.125 498.409 193.325 497.848 198.000 C 495.966 213.693 493.966 215.355 476.361 215.855 C 465.220 216.171 463.943 216.388 464.574 217.855 C 464.964 218.760 466.291 222.200 467.523 225.500 C 470.210 232.693 470.712 232.834 485.676 230.596 C 498.032 228.749 503.092 226.799 506.961 222.392 C 510.947 217.852 512.538 211.591 514.557 192.500 C 515.487 183.700 516.416 176.314 516.621 176.087 C 516.825 175.860 495.832 175.781 469.969 175.912 L 422.946 176.149 423.223 161.325 L 423.500 146.500 428.750 146.198 C 431.638 146.031 433.998 146.256 433.995 146.698 C 433.992 147.139 432.881 149.300 431.526 151.500 C 430.171 153.700 429.048 155.994 429.031 156.598 C 429.014 157.202 430.900 158.552 433.222 159.598 C 435.544 160.644 441.443 163.863 446.331 166.750 C 451.219 169.638 455.585 172.000 456.034 172.000 C 456.788 172.000 463.001 161.361 462.999 160.072 C 462.999 159.758 458.058 156.885 452.020 153.689 C 445.982 150.492 440.781 147.455 440.462 146.939 C 440.107 146.365 448.262 146.000 461.441 146.000 C 481.912 146.000 483.000 146.095 483.000 147.889 C 483.000 148.928 482.138 150.841 481.086 152.139 C 479.316 154.321 478.526 154.484 470.648 154.292 L 462.124 154.083 465.061 160.292 C 466.677 163.706 467.999 167.124 467.999 167.887 C 468.000 168.983 469.313 169.154 474.250 168.701 C 482.132 167.979 486.845 166.585 491.026 163.740 C 496.890 159.748 498.032 157.230 499.563 144.915 C 500.343 138.637 500.986 133.500 500.992 133.500 C 500.997 133.500 488.851 133.651 474.001 133.835 C 445.766 134.185 443.099 133.771 450.750 130.234 C 455.580 128.001 456.263 126.948 454.294 124.773 C 452.762 123.080 453.918 123.000 479.967 123.000 L 507.245 123.000 506.814 132.000 L 506.384 141.000 514.942 141.000 L 523.500 140.999 523.500 124.931 L 523.500 108.862 521.000 109.430 C 519.625 109.742 511.032 110.290 501.905 110.646 L 485.310 111.294 484.669 108.897 C 484.316 107.579 484.021 104.530 484.014 102.122 L 484.000 97.745 503.750 98.286 C 514.613 98.583 524.513 99.143 525.750 99.530 C 527.953 100.219 528.000 100.069 528.000 92.297 L 528.000 84.360 506.000 84.811 L 484.000 85.261 484.000 81.165 C 484.000 78.041 484.711 76.260 486.998 73.655 C 490.850 69.268 489.992 68.558 479.091 67.114 C 465.727 65.343 466.855 64.518 467.627 75.500 L 468.295 85.000 452.018 85.000 L 435.740 85.000 436.261 80.379 C 436.631 77.090 437.549 75.046 439.444 73.289 C 440.909 71.931 441.935 70.298 441.726 69.660 C 441.353 68.523 428.705 66.193 422.205 66.065 C 419.042 66.003 418.929 66.131 419.407 69.250 M 467.454 103.250 C 467.115 106.138 466.664 109.063 466.451 109.750 C 466.164 110.674 462.310 111.000 451.667 111.000 L 437.272 111.000 436.636 106.360 C 435.386 97.239 433.984 98.000 452.034 98.000 L 468.069 98.000 467.454 103.250 "/></g>
<g fill="#0076FFFF" stroke="#0076FFFF">
<path d="M 834.549 67.799 C 834.949 68.734 835.496 81.376 835.766 95.892 L 836.256 122.284 819.358 121.796 L 802.459 121.308 803.299 131.404 C 804.305 143.496 803.680 227.752 802.566 230.250 C 801.853 231.850 802.618 232.000 811.500 232.000 C 820.198 232.000 821.146 231.824 820.567 230.315 C 820.212 229.388 819.643 220.613 819.303 210.815 L 818.685 193.000 844.343 193.000 L 870.000 193.000 870.000 203.378 C 870.000 217.147 869.771 217.328 854.427 215.675 L 847.354 214.914 851.885 224.022 L 856.416 233.130 861.458 232.519 C 874.649 230.921 880.616 228.706 883.602 224.301 C 885.657 221.269 885.554 224.182 886.247 148.948 L 886.500 121.396 869.250 121.824 L 852.000 122.252 852.000 99.703 L 852.000 77.153 854.640 74.016 C 858.064 69.947 857.133 69.109 847.887 67.939 C 843.824 67.424 838.998 66.799 837.162 66.550 C 834.316 66.164 833.930 66.348 834.549 67.799 M 870.000 172.017 L 870.000 180.034 844.750 179.767 L 819.500 179.500 819.208 171.750 L 818.916 164.000 844.458 164.000 L 870.000 164.000 870.000 172.017 M 870.000 143.017 L 870.000 151.034 844.750 150.767 L 819.500 150.500 819.199 144.105 C 819.033 140.588 819.131 137.101 819.417 136.355 C 819.836 135.265 824.829 135.000 844.969 135.000 L 870.000 135.000 870.000 143.017 "/></g>
<g fill="#0076FFFF" stroke="#0076FFFF">
<path d="M 197.000 152.797 L 196.999 160.500 230.517 160.159 L 264.035 159.817 263.768 184.454 L 263.500 209.091 257.266 205.976 C 251.236 202.962 243.938 195.989 240.929 190.368 C 239.806 188.268 239.920 187.344 241.780 183.517 C 242.962 181.083 245.182 178.295 246.715 177.319 C 248.247 176.344 249.823 175.086 250.217 174.523 C 251.483 172.717 247.732 170.374 238.156 166.989 C 228.256 163.491 227.100 163.647 226.982 168.500 C 226.899 171.949 220.537 187.481 216.255 194.687 C 211.192 203.210 200.935 214.423 193.553 219.508 C 188.356 223.088 186.748 225.000 188.937 225.000 C 189.452 225.000 192.849 227.037 196.486 229.527 L 203.098 234.054 207.517 230.432 C 212.386 226.443 222.913 214.734 228.004 207.644 L 231.268 203.100 238.560 210.464 C 246.785 218.769 253.885 222.682 266.000 225.588 C 272.309 227.102 279.239 227.450 309.627 227.778 L 345.754 228.169 347.978 220.847 C 349.201 216.819 351.099 211.767 352.194 209.619 C 354.081 205.920 354.089 205.754 352.343 206.457 C 348.402 208.043 331.982 210.974 321.500 211.962 C 308.841 213.155 298.540 213.274 287.651 212.353 L 280.000 211.707 280.000 200.261 L 280.000 188.816 304.001 189.158 L 328.001 189.500 328.001 181.769 L 328.000 174.038 323.250 174.708 C 320.638 175.076 309.950 175.405 299.500 175.439 L 280.500 175.500 280.208 167.750 L 279.916 160.000 299.031 160.000 L 318.147 160.000 315.000 165.500 L 311.853 171.000 317.677 171.011 C 320.879 171.017 325.181 171.300 327.236 171.640 L 330.973 172.257 337.476 158.879 L 343.978 145.500 336.739 146.000 C 325.599 146.769 208.189 146.592 202.250 145.797 L 197.000 145.094 197.000 152.797 "/></g>
<g fill="#0076FFFF" stroke="#0076FFFF">
<path d="M 648.671 74.657 L 649.304 85.000 631.025 85.000 L 612.746 85.000 613.227 79.990 C 613.492 77.234 614.488 74.118 615.442 73.064 C 618.881 69.264 617.180 67.618 608.488 66.332 C 594.789 64.305 595.987 63.410 596.702 75.148 L 597.320 85.296 579.410 84.750 C 569.560 84.450 560.713 83.885 559.750 83.495 C 558.171 82.855 558.000 83.558 558.000 90.675 L 558.000 98.565 577.500 98.164 L 597.000 97.763 597.000 101.256 C 597.000 103.178 596.710 106.202 596.355 107.976 L 595.710 111.201 575.105 110.858 L 554.500 110.515 555.277 117.507 C 555.705 121.353 555.779 129.338 555.443 135.250 L 554.831 146.000 563.439 146.000 L 572.046 146.000 571.773 135.250 L 571.500 124.500 631.379 124.242 L 691.258 123.984 690.804 134.992 L 690.350 146.000 698.925 146.000 L 707.500 146.000 707.500 128.250 L 707.500 110.500 686.814 110.850 L 666.128 111.200 665.522 107.350 C 665.189 105.233 664.711 102.211 664.460 100.635 L 664.004 97.770 684.502 98.156 L 705.000 98.543 705.000 90.834 L 705.000 83.126 701.250 83.813 C 699.188 84.191 690.075 84.500 681.000 84.500 L 664.500 84.500 664.806 80.000 C 664.975 77.525 665.987 74.281 667.056 72.790 C 670.681 67.737 670.212 67.383 657.578 65.635 L 648.038 64.314 648.671 74.657 M 649.000 99.860 C 649.000 100.884 648.714 103.809 648.364 106.360 L 647.728 111.000 630.981 111.000 C 612.028 111.000 613.043 111.494 613.014 102.250 L 613.000 98.000 631.000 98.000 C 647.883 98.000 649.000 98.115 649.000 99.860 "/></g>
<g fill="#0076FFFF" stroke="#0076FFFF">
<path d="M 230.541 77.819 L 231.260 89.322 216.712 88.661 C 208.711 88.298 201.453 87.727 200.582 87.393 C 199.224 86.872 199.000 87.869 199.000 94.421 L 199.000 102.056 211.000 101.378 C 218.434 100.958 223.000 101.064 223.000 101.655 C 223.000 103.320 212.542 115.341 207.541 119.426 C 204.897 121.585 199.195 125.479 194.869 128.079 L 187.004 132.806 190.060 133.871 C 191.740 134.457 195.137 136.301 197.608 137.968 C 200.079 139.636 202.487 141.000 202.960 141.000 C 204.495 141.000 214.298 132.934 222.869 124.619 L 231.237 116.500 230.615 129.750 L 229.992 143.000 239.104 143.000 C 248.121 143.000 248.211 142.976 247.638 140.693 C 247.320 139.425 246.753 133.350 246.379 127.193 C 245.798 117.623 245.916 116.000 247.195 116.000 C 248.707 116.000 261.000 123.531 261.000 124.458 C 261.000 124.734 259.090 125.934 256.756 127.124 C 252.921 129.081 252.693 129.396 254.386 130.395 C 255.417 131.003 258.924 133.428 262.179 135.784 L 268.097 140.067 271.298 137.862 C 276.575 134.228 288.236 124.944 292.353 121.098 L 296.205 117.500 295.807 130.250 L 295.409 143.000 304.076 143.000 L 312.742 143.000 312.621 128.930 L 312.500 114.860 322.000 121.558 C 327.225 125.242 333.587 129.999 336.139 132.128 C 338.690 134.258 341.043 136.000 341.368 136.000 C 341.692 136.000 343.994 132.965 346.482 129.256 L 351.006 122.513 348.753 120.806 C 347.514 119.867 340.055 115.139 332.177 110.299 L 317.855 101.500 330.427 101.650 L 343.000 101.800 343.000 94.293 C 343.000 87.554 342.821 86.855 341.250 87.458 C 340.288 87.828 333.253 88.398 325.618 88.724 L 311.737 89.319 312.187 83.091 C 312.576 77.718 313.028 76.553 315.487 74.592 C 320.893 70.282 318.333 68.878 302.364 67.396 L 295.228 66.734 295.762 78.006 L 296.296 89.279 285.992 88.548 C 280.325 88.146 275.083 87.586 274.344 87.302 C 273.291 86.898 273.000 88.439 273.000 94.420 L 273.000 102.054 282.250 101.777 L 291.500 101.500 285.268 107.666 C 279.432 113.440 264.972 124.000 262.902 124.000 C 262.390 124.000 263.328 121.313 264.986 118.029 C 266.644 114.744 268.000 111.694 268.000 111.251 C 268.000 110.808 264.063 108.433 259.250 105.973 L 250.500 101.500 259.750 101.737 L 269.000 101.974 269.000 94.737 L 269.001 87.500 259.138 88.410 C 246.237 89.599 245.617 89.336 246.233 82.927 C 246.617 78.935 247.412 77.171 250.057 74.442 C 252.357 72.068 253.074 70.674 252.362 69.962 C 251.793 69.393 246.489 68.339 240.575 67.621 L 229.822 66.315 230.541 77.819 "/></g>
<g fill="#C61E68FF" stroke="#C61E68FF">
<path d="M 152.500 122.240 C 150.850 122.738 148.600 123.516 147.500 123.968 C 104.317 141.702 79.955 155.567 53.705 177.351 C 49.026 181.235 40.017 192.792 36.441 199.500 C 32.956 206.039 32.024 215.032 34.379 219.405 C 36.410 223.176 42.708 227.217 49.500 229.108 C 55.660 230.823 74.993 230.949 80.500 229.310 C 82.700 228.655 86.975 227.393 90.000 226.504 C 93.025 225.615 99.775 222.797 105.000 220.241 C 112.796 216.427 115.935 214.150 122.501 207.547 C 129.888 200.117 136.599 190.270 135.825 187.996 C 135.646 187.470 130.999 190.068 125.497 193.770 C 103.853 208.333 88.376 215.000 76.213 215.000 C 69.214 215.000 63.000 211.948 63.000 208.510 C 63.000 203.254 68.570 195.943 78.788 187.789 C 81.427 185.682 94.575 178.292 102.000 174.741 C 109.948 170.939 118.944 167.005 119.780 166.966 C 120.176 166.947 122.300 166.063 124.500 165.000 C 126.700 163.937 129.213 163.053 130.083 163.034 C 130.954 163.015 131.964 162.703 132.327 162.340 C 132.690 161.976 138.053 160.007 144.244 157.962 L 155.500 154.246 155.500 137.789 L 155.500 121.333 152.500 122.240 "/></g>
<g fill="#0076FFFF" stroke="#0076FFFF">
<path d="M 576.701 185.783 C 577.605 195.647 577.539 224.229 576.598 230.114 L 575.976 234.000 585.045 234.000 L 594.113 234.000 593.806 228.250 L 593.500 222.500 632.345 222.238 L 671.191 221.976 670.502 226.988 L 669.812 232.000 678.656 232.000 L 687.500 231.999 687.500 204.576 L 687.500 177.153 682.500 177.827 C 675.806 178.728 591.314 178.691 582.701 177.783 L 575.901 177.066 576.701 185.783 M 671.000 200.500 L 671.000 210.000 632.000 210.000 L 593.000 210.000 593.000 201.167 C 593.000 196.308 593.300 192.033 593.667 191.667 C 594.033 191.300 611.583 191.000 632.667 191.000 L 671.000 191.000 671.000 200.500 "/></g>
<g fill="#0076FFFF" stroke="#0076FFFF">
<path d="M 759.312 67.793 C 752.844 86.448 739.387 108.026 729.536 115.541 L 726.081 118.175 732.291 122.338 L 738.500 126.500 738.799 132.224 L 739.098 137.948 743.799 137.433 C 746.385 137.149 750.188 136.705 752.250 136.447 L 756.000 135.976 756.000 146.625 L 756.000 157.274 746.250 156.596 C 740.888 156.224 735.038 155.662 733.250 155.348 L 730.000 154.777 730.000 162.725 L 730.000 170.673 743.000 170.204 L 756.000 169.735 756.000 190.332 L 756.000 210.930 752.899 214.463 L 749.797 217.995 754.873 223.854 C 762.993 233.227 761.555 233.382 772.655 221.931 C 778.070 216.344 786.013 208.840 790.306 205.254 C 795.999 200.499 797.935 198.296 797.460 197.117 C 797.101 196.228 796.078 192.038 795.187 187.806 L 793.567 180.111 782.833 191.306 L 772.098 202.500 772.049 186.117 L 772.000 169.735 785.000 170.204 L 798.000 170.673 798.000 162.712 L 798.000 154.750 795.159 155.318 C 793.596 155.631 787.746 156.201 782.159 156.586 L 772.000 157.286 772.000 146.541 L 772.000 135.797 779.250 136.440 C 783.238 136.793 788.188 137.328 790.250 137.629 L 794.000 138.176 794.000 130.338 L 794.001 122.500 770.524 122.500 L 747.047 122.500 752.233 114.639 L 757.419 106.778 777.710 107.160 L 798.000 107.543 798.000 99.646 L 798.000 91.750 794.859 92.378 C 793.131 92.724 785.931 93.299 778.859 93.657 C 769.235 94.144 766.000 94.009 766.000 93.121 C 766.000 92.468 767.149 89.665 768.554 86.893 C 770.388 83.273 772.060 81.455 774.486 80.441 C 781.367 77.566 779.881 75.201 767.702 69.644 C 760.758 66.476 759.839 66.273 759.312 67.793 "/></g>
<g fill="#0076FFFF" stroke="#0076FFFF">
<path d="M 587.623 144.500 C 587.922 152.200 587.755 161.298 587.253 164.717 L 586.340 170.934 592.420 170.217 C 600.232 169.296 665.073 169.279 671.000 170.197 L 675.500 170.893 675.500 150.697 L 675.500 130.500 631.290 130.500 L 587.081 130.500 587.623 144.500 M 659.000 150.516 L 659.000 157.032 631.250 156.766 L 603.500 156.500 603.190 151.627 C 603.020 148.947 603.118 146.134 603.409 145.377 C 603.840 144.254 609.011 144.000 631.469 144.000 L 659.000 144.000 659.000 150.516 "/></g>
<g fill="#04498907" stroke="#04498907">
<path d="M 105.663 86.263 C 106.071 86.923 105.741 87.115 104.811 86.758 C 103.955 86.429 102.550 87.045 101.585 88.171 C 100.640 89.275 99.211 89.911 98.386 89.595 C 97.567 89.280 97.160 89.451 97.483 89.973 C 97.996 90.802 91.855 94.662 89.714 94.857 C 89.282 94.896 88.212 95.646 87.335 96.522 C 86.459 97.398 85.102 97.869 84.319 97.569 C 83.536 97.269 83.159 97.448 83.480 97.968 C 84.129 99.017 80.107 101.971 77.302 102.504 C 76.311 102.693 75.898 102.881 76.385 102.923 C 76.872 102.966 76.084 103.933 74.635 105.073 C 73.186 106.212 72.000 106.801 72.000 106.381 C 72.000 105.961 71.438 106.271 70.750 107.069 C 68.106 110.139 64.139 113.158 62.358 113.455 C 61.336 113.626 60.598 114.225 60.718 114.787 C 60.838 115.349 60.275 116.356 59.468 117.027 C 58.661 117.697 58.000 117.942 58.000 117.571 C 58.000 117.200 56.875 118.111 55.500 119.595 C 54.125 121.078 53.000 121.917 53.000 121.459 C 53.000 121.001 51.666 121.904 50.036 123.466 C 48.405 125.028 47.284 126.651 47.545 127.073 C 47.806 127.495 46.777 128.817 45.260 130.010 C 43.742 131.204 42.500 132.541 42.500 132.980 C 42.500 133.884 34.083 145.456 33.848 144.876 C 33.764 144.669 33.608 144.950 33.501 145.500 C 33.000 148.079 31.536 150.641 29.730 152.099 C 28.641 152.978 27.750 154.890 27.750 156.349 C 27.750 157.807 27.330 159.000 26.816 159.000 C 26.302 159.000 26.125 159.394 26.423 159.875 C 27.036 160.868 24.275 169.721 22.641 172.000 C 22.050 172.825 21.933 173.194 22.381 172.819 C 22.829 172.445 23.225 177.152 23.261 183.281 C 23.339 196.381 25.516 203.908 29.250 203.985 C 29.663 203.993 30.000 203.523 30.000 202.941 C 30.000 202.359 29.532 202.171 28.960 202.525 C 28.276 202.947 28.158 202.196 28.615 200.334 C 28.997 198.775 29.665 197.358 30.099 197.185 C 30.533 197.012 30.611 196.151 30.274 195.271 C 29.842 194.147 30.040 193.906 30.937 194.461 C 31.894 195.053 32.035 194.686 31.500 193.000 C 30.969 191.326 31.109 190.949 32.047 191.529 C 32.847 192.024 33.059 191.904 32.626 191.204 C 31.757 189.799 35.914 180.829 37.095 181.559 C 37.580 181.859 37.681 181.332 37.319 180.388 C 36.836 179.132 37.015 178.891 37.985 179.490 C 38.819 180.006 39.069 179.920 38.660 179.259 C 38.303 178.682 38.676 177.954 39.489 177.643 C 40.413 177.288 40.726 176.407 40.324 175.288 C 39.947 174.239 40.057 173.845 40.591 174.333 C 41.091 174.792 41.556 174.679 41.625 174.083 C 41.694 173.488 41.806 172.523 41.875 171.941 C 41.944 171.359 42.520 171.203 43.155 171.595 C 43.825 172.010 44.039 171.872 43.666 171.268 C 43.049 170.271 44.680 168.263 46.250 168.085 C 46.663 168.038 46.759 168.000 46.465 168.000 C 46.170 168.000 46.409 167.104 46.995 166.010 C 47.580 164.915 48.588 164.128 49.234 164.260 C 49.880 164.392 50.430 163.980 50.455 163.344 C 50.503 162.109 58.000 154.422 58.000 155.607 C 58.000 155.994 58.882 155.512 59.960 154.536 C 61.038 153.560 61.826 152.455 61.710 152.079 C 61.396 151.058 68.674 144.899 69.814 145.221 C 70.357 145.375 70.905 145.050 71.034 144.500 C 71.269 143.501 75.277 140.329 75.750 140.768 C 75.888 140.896 75.888 140.931 75.750 140.848 C 75.613 140.764 75.950 140.591 76.500 140.463 C 77.050 140.335 77.332 140.179 77.128 140.115 C 76.923 140.052 77.324 139.315 78.019 138.477 C 78.714 137.640 80.063 137.203 81.017 137.505 C 82.216 137.886 82.926 137.389 83.316 135.898 C 83.692 134.460 84.397 133.938 85.428 134.334 C 86.346 134.686 86.879 134.434 86.738 133.714 C 86.607 133.046 87.272 132.495 88.215 132.489 C 89.159 132.482 90.509 131.719 91.215 130.793 C 91.922 129.868 93.164 128.973 93.976 128.805 C 94.788 128.637 96.084 127.912 96.855 127.192 C 97.627 126.473 98.898 126.131 99.681 126.431 C 100.464 126.731 100.870 126.598 100.583 126.135 C 99.882 125.000 104.867 122.799 106.229 123.642 C 106.872 124.039 107.020 123.841 106.595 123.155 C 105.953 122.115 107.075 121.606 108.587 122.250 C 108.909 122.388 109.117 114.335 109.048 104.356 C 108.929 87.225 108.812 86.184 106.960 85.700 C 105.717 85.375 105.241 85.582 105.663 86.263 "/></g>
<g fill="#1364A1FF" stroke="#1364A1FF">
<path d="M 100.604 90.626 C 76.762 102.851 52.919 121.742 40.462 138.276 C 35.570 144.769 29.018 157.725 26.442 166.000 C 24.325 172.800 24.041 192.922 25.998 197.500 L 27.280 200.500 28.642 196.000 C 30.773 188.956 35.762 179.102 40.795 172.000 C 52.796 155.063 77.823 134.999 100.706 123.972 L 107.912 120.500 107.706 103.795 L 107.500 87.090 100.604 90.626 "/></g>
<g fill="#E6C23BFF" stroke="#E6C23BFF">
<path d="M 35.475 70.288 C 16.654 92.537 6.000 117.152 6.000 138.388 C 6.000 148.499 8.665 159.866 13.161 168.928 L 16.421 175.500 17.641 162.223 C 19.819 138.521 28.699 116.040 43.097 97.772 C 46.669 93.240 47.302 89.922 44.879 88.425 C 44.396 88.127 43.997 87.121 43.994 86.191 C 43.990 85.261 43.401 83.375 42.684 82.000 C 41.966 80.625 40.530 77.138 39.492 74.250 C 37.503 68.716 37.122 68.341 35.475 70.288 "/></g>
<g fill="#0076FFFF" stroke="#0076FFFF">
<path d="M 382.000 204.187 L 382.000 211.874 385.750 211.187 C 390.686 210.283 471.979 210.296 478.750 211.203 L 484.000 211.906 484.000 204.203 L 484.000 196.500 433.000 196.500 L 382.000 196.500 382.000 204.187 "/></g>
<g fill="#0076FFFF" stroke="#0076FFFF">
<path d="M 873.071 77.284 C 871.256 82.785 863.466 95.180 858.009 101.250 C 855.166 104.413 853.256 107.000 853.765 107.000 C 854.274 107.000 857.447 108.782 860.817 110.960 L 866.944 114.920 871.300 109.210 C 873.696 106.070 877.579 100.646 879.928 97.157 C 882.278 93.668 885.731 89.911 887.600 88.808 C 889.470 87.705 891.000 86.475 891.000 86.076 C 891.000 84.618 883.198 78.817 876.326 75.166 C 874.358 74.120 874.049 74.321 873.071 77.284 "/></g>
<g fill="#0076FFFF" stroke="#0076FFFF">
<path d="M 804.211 79.661 C 800.795 82.112 798.003 84.429 798.006 84.809 C 798.009 85.189 800.515 88.636 803.575 92.470 C 806.635 96.303 811.201 102.378 813.721 105.970 C 816.242 109.561 818.654 112.896 819.083 113.381 C 819.804 114.197 833.049 105.298 832.960 104.057 C 832.938 103.751 827.858 97.134 821.671 89.352 L 810.422 75.205 804.211 79.661 "/></g>
<g fill="#E5BF3822" stroke="#E5BF3822">
<path d="M 40.062 74.157 C 41.219 77.093 42.575 79.988 43.074 80.590 C 43.574 81.191 43.687 81.980 43.325 82.342 C 42.963 82.704 43.192 83.000 43.833 83.000 C 44.475 83.000 44.947 83.338 44.882 83.750 C 44.816 84.163 44.851 84.725 44.958 85.000 C 45.065 85.275 45.297 86.175 45.473 87.000 C 45.648 87.825 46.089 89.643 46.452 91.039 C 46.967 93.024 46.336 94.553 43.565 98.039 C 41.615 100.493 40.015 103.063 40.010 103.750 C 40.004 104.438 39.587 105.000 39.082 105.000 C 37.930 105.000 33.667 111.801 33.667 113.638 C 33.667 114.387 33.357 115.000 32.978 115.000 C 32.343 115.000 24.000 132.118 24.000 133.421 C 24.000 133.740 24.417 134.000 24.927 134.000 C 26.083 134.000 28.619 129.012 29.498 125.010 C 29.861 123.355 30.545 122.000 31.017 122.000 C 31.489 122.000 31.816 121.201 31.742 120.224 C 31.668 119.248 32.540 117.110 33.680 115.474 C 34.819 113.839 37.926 109.125 40.584 105.000 C 43.242 100.875 46.222 96.912 47.208 96.193 C 49.134 94.789 49.640 90.514 48.000 89.500 C 47.450 89.160 47.000 88.009 47.000 86.941 C 47.000 85.873 46.625 85.000 46.167 85.000 C 45.708 85.000 45.328 84.438 45.321 83.750 C 45.314 83.063 44.387 80.475 43.260 78.000 C 42.134 75.525 41.052 72.637 40.856 71.583 C 40.660 70.528 39.928 69.475 39.229 69.243 C 38.361 68.953 38.624 70.510 40.062 74.157 "/></g>
<g fill="#0076FF80" stroke="#0076FF80">
<path d="M 593.434 200.500 L 593.500 209.500 632.250 209.494 L 671.000 209.488 632.539 209.244 L 594.078 209.000 593.723 200.250 L 593.369 191.500 593.434 200.500 "/></g>
<g fill="#0076FFC0" stroke="#0076FFC0">
<path d="M 819.432 171.747 L 819.500 179.500 844.750 179.491 L 870.000 179.481 845.042 179.241 L 820.084 179.000 819.725 171.497 L 819.365 163.993 819.432 171.747 "/></g>
<g fill="#0076FF40" stroke="#0076FF40">
<path d="M 844.500 164.741 L 869.000 165.035 869.221 172.017 L 869.441 179.000 869.471 171.750 L 869.500 164.500 844.750 164.473 L 819.999 164.446 844.500 164.741 "/></g>
<g fill="#C019671F" stroke="#C019671F">
<path d="M 151.500 119.916 C 143.666 122.724 142.744 123.278 144.376 124.191 C 145.309 124.713 146.000 124.721 146.000 124.210 C 146.000 122.997 150.926 120.836 152.075 121.546 C 152.584 121.861 153.000 121.647 153.000 121.070 C 153.000 120.494 154.125 120.116 155.500 120.229 L 158.000 120.436 158.000 137.635 C 158.000 150.458 157.682 154.962 156.750 155.338 C 156.003 155.639 156.205 155.874 157.250 155.921 C 158.856 155.994 159.000 154.482 159.000 137.500 L 159.000 119.000 156.250 119.100 C 154.738 119.155 152.600 119.522 151.500 119.916 "/></g>
<g fill="#1466A22A" stroke="#1466A22A">
<path d="M 104.441 86.555 C 102.566 88.057 102.574 88.074 104.684 87.055 C 109.029 84.956 109.085 85.179 108.955 103.918 C 108.887 113.772 109.094 121.572 109.416 121.251 C 109.737 120.930 110.000 112.642 110.000 102.833 C 110.000 86.295 109.869 85.000 108.191 85.000 C 107.196 85.000 105.509 85.700 104.441 86.555 "/></g>
<g fill="#E5BF3822" stroke="#E5BF3822">
<path d="M 25.000 79.847 C 25.000 80.313 24.100 81.732 23.000 83.000 C 21.900 84.268 21.000 85.912 21.000 86.653 C 21.000 87.394 20.559 88.000 20.019 88.000 C 19.480 88.000 18.756 89.125 18.411 90.500 C 18.066 91.875 17.382 93.000 16.892 93.000 C 16.401 93.000 16.000 93.638 16.000 94.417 C 16.000 95.196 15.609 95.983 15.132 96.167 C 13.773 96.689 12.703 101.000 13.933 101.000 C 14.891 101.000 15.168 100.256 14.915 98.362 C 14.868 98.011 15.218 97.448 15.694 97.112 C 16.688 96.409 25.000 83.181 25.000 82.302 C 25.000 81.982 25.788 81.123 26.750 80.392 C 28.417 79.127 28.417 79.062 26.750 79.032 C 25.788 79.014 25.000 79.381 25.000 79.847 "/></g>
<g fill="#0076FFC0" stroke="#0076FFC0">
<path d="M 423.439 147.298 C 423.165 148.012 423.081 154.875 423.251 162.548 L 423.561 176.500 423.781 161.653 L 424.000 146.807 429.001 147.153 C 431.751 147.344 434.001 147.163 434.001 146.750 C 433.999 145.390 423.972 145.910 423.439 147.298 "/></g>
<g fill="#0076FFC0" stroke="#0076FFC0">
<path d="M 415.156 123.958 C 425.967 124.256 434.603 124.163 434.347 123.750 C 434.091 123.338 425.246 123.094 414.691 123.208 L 395.500 123.417 415.156 123.958 "/></g>
<g fill="#C019671F" stroke="#C019671F">
<path d="M 51.735 176.267 C 45.647 181.375 36.965 192.848 40.021 191.746 C 41.172 191.331 41.850 190.566 41.528 190.046 C 41.207 189.526 41.869 188.605 43.000 188.000 C 44.131 187.395 44.814 186.508 44.518 186.030 C 44.223 185.552 45.223 184.183 46.740 182.990 C 48.258 181.796 49.314 180.747 49.087 180.659 C 48.859 180.572 50.434 178.648 52.587 176.385 L 56.500 172.269 51.735 176.267 "/></g>
<g fill="#0076FF40" stroke="#0076FF40">
<path d="M 630.499 98.737 C 640.876 98.920 648.061 99.444 648.150 100.023 C 648.233 100.560 648.345 100.438 648.400 99.750 C 648.476 98.794 644.319 98.492 630.749 98.464 L 612.998 98.429 630.499 98.737 "/></g>
<g fill="#C51E67CD" stroke="#C51E67CD">
<path d="M 153.952 121.160 C 152.778 121.992 152.843 122.078 154.291 121.610 C 155.968 121.068 156.074 122.108 155.953 137.937 C 155.882 147.235 156.089 154.578 156.412 154.255 C 157.312 153.355 157.111 121.187 156.202 120.625 C 155.763 120.354 154.751 120.595 153.952 121.160 "/></g>
<g fill="#C61D6673" stroke="#C61D6673">
<path d="M 157.224 136.700 C 157.026 151.882 156.795 154.020 155.250 154.920 C 154.288 155.481 154.007 155.953 154.628 155.970 C 157.572 156.049 158.046 153.067 157.749 136.368 L 157.448 119.500 157.224 136.700 "/></g>
<g fill="#C019671F" stroke="#C019671F">
<path d="M 108.016 202.057 C 106.099 203.126 103.962 204.000 103.266 204.000 C 102.570 204.000 102.000 204.450 102.000 205.000 C 102.000 205.550 101.506 206.000 100.901 206.000 C 100.297 206.000 98.384 206.627 96.651 207.393 C 94.918 208.159 92.637 209.074 91.583 209.426 C 90.122 209.913 89.943 210.343 90.833 211.233 C 91.630 212.030 92.000 212.054 92.000 211.308 C 92.000 210.335 95.852 208.703 98.500 208.556 C 99.050 208.525 100.099 207.933 100.831 207.241 C 101.562 206.548 102.575 206.237 103.081 206.550 C 103.586 206.862 104.000 206.566 104.000 205.892 C 104.000 205.218 104.279 204.945 104.619 205.286 C 104.960 205.626 105.896 205.247 106.700 204.443 C 107.504 203.639 108.644 203.280 109.235 203.645 C 109.872 204.039 110.018 203.839 109.595 203.155 C 108.958 202.124 110.153 201.551 112.250 201.882 C 112.663 201.947 113.000 201.550 113.000 201.000 C 113.000 199.611 112.039 199.814 108.016 202.057 "/></g>
<g fill="#C019671F" stroke="#C019671F">
<path d="M 134.288 184.714 C 133.132 185.696 131.192 187.175 129.975 188.000 C 128.759 188.825 126.805 190.475 125.632 191.667 C 124.459 192.858 126.279 191.872 129.675 189.474 C 134.911 185.778 136.032 185.334 137.048 186.557 C 137.988 187.691 137.961 188.000 136.922 188.000 C 135.915 188.000 135.878 188.278 136.767 189.167 C 138.012 190.412 138.596 189.541 139.202 185.536 C 139.600 182.913 136.932 182.467 134.288 184.714 "/></g>
<g fill="#C019671F" stroke="#C019671F">
<path d="M 84.579 185.146 C 83.523 186.161 82.455 186.788 82.205 186.538 C 81.956 186.289 80.923 187.078 79.909 188.293 C 78.896 189.507 78.052 190.167 78.033 189.759 C 78.015 189.352 76.650 190.431 75.000 192.157 C 73.350 193.884 71.947 195.117 71.882 194.898 C 71.816 194.679 71.816 194.838 71.882 195.250 C 71.947 195.663 71.298 196.000 70.441 196.000 C 69.584 196.000 69.141 196.419 69.458 196.932 C 69.774 197.444 69.026 198.569 67.794 199.432 C 66.563 200.294 66.041 201.000 66.635 201.000 C 67.228 201.000 69.963 198.863 72.712 196.250 C 78.482 190.765 79.342 190.083 83.779 187.468 C 85.582 186.405 86.932 185.032 86.779 184.418 C 86.612 183.747 85.731 184.039 84.579 185.146 "/></g>
<g fill="#E5BF3822" stroke="#E5BF3822">
<path d="M 4.000 138.500 C 4.000 143.500 4.412 147.000 5.000 147.000 C 5.588 147.000 6.000 143.500 6.000 138.500 C 6.000 133.500 5.588 130.000 5.000 130.000 C 4.412 130.000 4.000 133.500 4.000 138.500 "/></g>
<g fill="#0076FF40" stroke="#0076FF40">
<path d="M 484.404 82.000 L 484.500 84.500 499.250 84.484 L 514.000 84.469 499.566 84.234 C 485.472 84.006 485.123 83.947 484.720 81.750 C 484.361 79.792 484.320 79.825 484.404 82.000 "/></g>
<g fill="#C019671F" stroke="#C019671F">
<path d="M 87.000 211.042 C 86.175 211.586 81.332 211.964 76.237 211.882 C 69.257 211.770 67.308 212.011 68.329 212.858 C 69.074 213.477 69.905 213.761 70.176 213.491 C 70.447 213.220 72.751 213.387 75.296 213.863 C 77.842 214.339 80.054 214.356 80.212 213.902 C 80.370 213.449 82.423 212.947 84.774 212.789 C 87.513 212.604 88.949 212.061 88.774 211.276 C 88.583 210.422 88.047 210.352 87.000 211.042 "/></g>
<g fill="#C019671F" stroke="#C019671F">
<path d="M 34.474 198.491 C 33.388 200.960 32.202 202.985 31.838 202.991 C 31.474 202.996 31.301 204.136 31.453 205.524 C 31.606 206.913 31.341 208.289 30.865 208.583 C 29.608 209.360 29.806 214.422 31.221 217.685 C 32.355 220.298 32.388 220.208 31.679 216.426 C 31.248 214.127 31.341 211.232 31.894 209.779 C 32.432 208.364 32.671 207.004 32.424 206.757 C 31.763 206.096 35.804 197.339 37.599 195.544 C 38.796 194.347 38.840 194.000 37.796 194.000 C 37.055 194.000 35.560 196.021 34.474 198.491 "/></g>
<g fill="#0076FF40" stroke="#0076FF40">
<path d="M 467.167 82.500 C 467.028 83.748 464.475 84.040 452.000 84.235 L 437.000 84.470 452.250 84.485 C 466.144 84.499 467.493 84.344 467.417 82.750 C 467.371 81.788 467.258 81.675 467.167 82.500 "/></g>
<g fill="#0076FF80" stroke="#0076FF80">
<path d="M 436.345 99.543 C 436.019 100.392 436.034 101.367 436.376 101.710 C 436.719 102.053 437.000 101.595 437.000 100.693 C 437.000 99.257 438.904 99.014 452.250 98.748 L 467.500 98.444 452.219 98.222 C 439.231 98.033 436.848 98.232 436.345 99.543 "/></g>
<g fill="#E5BF3822" stroke="#E5BF3822">
<path d="M 9.183 110.217 C 8.533 110.868 8.000 112.120 8.000 113.000 C 8.000 113.880 7.566 115.034 7.037 115.563 C 6.507 116.093 5.803 119.221 5.473 122.513 C 5.000 127.235 5.115 128.117 6.020 126.689 C 6.651 125.693 6.924 124.245 6.627 123.471 C 6.330 122.697 6.557 121.774 7.131 121.419 C 7.705 121.064 7.952 119.925 7.681 118.887 C 7.409 117.849 7.670 117.000 8.260 117.000 C 8.850 117.000 9.051 116.718 8.707 116.373 C 8.362 116.028 8.770 114.412 9.614 112.780 C 11.278 109.562 11.071 108.329 9.183 110.217 "/></g>
<g fill="#E5BF3822" stroke="#E5BF3822">
<path d="M 5.379 153.674 C 5.659 156.519 6.330 159.669 6.871 160.674 C 7.412 161.678 8.098 163.288 8.396 164.250 C 8.694 165.213 9.413 166.000 9.994 166.000 C 10.638 166.000 10.470 164.875 9.566 163.127 C 8.748 161.547 8.362 159.972 8.707 159.627 C 9.051 159.282 8.921 158.999 8.417 158.998 C 7.913 158.997 7.384 157.376 7.243 155.396 C 7.101 153.416 6.509 151.054 5.928 150.148 C 5.138 148.917 4.999 149.810 5.379 153.674 "/></g>
<g fill="#C019671F" stroke="#C019671F">
<path d="M 144.079 158.794 C 144.036 159.505 143.438 159.974 142.750 159.834 C 142.063 159.695 140.478 160.146 139.229 160.836 C 137.980 161.527 136.556 161.844 136.065 161.540 C 135.573 161.236 135.013 161.460 134.821 162.037 C 134.629 162.614 133.241 163.217 131.737 163.378 C 130.233 163.538 129.302 163.969 129.668 164.335 C 130.034 164.701 129.385 165.000 128.226 165.000 C 127.066 165.000 125.829 165.468 125.475 166.040 C 124.719 167.264 129.958 166.238 131.450 164.871 C 131.973 164.392 133.029 164.000 133.799 164.000 C 134.568 164.000 136.616 163.373 138.349 162.607 C 140.082 161.841 142.325 160.941 143.333 160.607 C 144.341 160.272 144.939 159.437 144.662 158.749 C 144.271 157.780 144.140 157.789 144.079 158.794 "/></g>
<g fill="#C019671F" stroke="#C019671F">
<path d="M 81.727 154.000 C 80.329 155.100 78.923 156.000 78.604 156.000 C 78.284 156.000 77.230 156.679 76.261 157.508 C 75.293 158.338 74.153 159.003 73.730 158.986 C 73.306 158.970 71.736 160.091 70.240 161.478 C 68.744 162.865 67.178 164.000 66.760 164.000 C 66.342 164.000 66.000 164.775 66.000 165.723 C 66.000 167.133 66.284 167.039 67.568 165.206 C 68.431 163.974 69.509 163.196 69.964 163.478 C 70.418 163.759 71.059 163.288 71.388 162.431 C 71.717 161.574 72.439 161.153 72.993 161.496 C 73.547 161.838 74.000 161.700 74.000 161.188 C 74.000 160.677 76.813 158.405 80.250 156.138 C 83.688 153.872 85.998 152.014 85.385 152.009 C 84.772 152.004 83.126 152.900 81.727 154.000 "/></g>
<g fill="#1466A22A" stroke="#1466A22A">
<path d="M 73.435 141.883 C 69.071 145.099 63.475 149.622 61.000 151.934 C 58.364 154.397 59.840 153.490 64.562 149.746 C 68.997 146.231 74.766 141.881 77.383 140.081 C 79.999 138.280 81.967 136.634 81.755 136.422 C 81.543 136.210 77.799 138.667 73.435 141.883 "/></g>
<g fill="#E5BF3822" stroke="#E5BF3822">
<path d="M 18.193 170.250 C 18.010 175.696 16.621 177.781 15.362 174.500 C 15.045 173.675 14.384 173.000 13.893 173.000 C 12.352 173.000 12.916 174.916 15.100 177.100 C 18.122 180.122 19.162 178.351 18.744 170.898 L 18.385 164.500 18.193 170.250 "/></g>
<g fill="#C019671F" stroke="#C019671F">
<path d="M 94.000 226.000 C 94.000 226.615 93.581 226.859 93.069 226.543 C 92.557 226.226 91.837 226.455 91.468 227.052 C 91.099 227.648 90.145 227.886 89.347 227.580 C 88.435 227.230 88.157 227.444 88.597 228.157 C 89.087 228.950 88.500 229.091 86.649 228.627 C 84.958 228.202 84.000 228.369 84.000 229.088 C 84.000 229.707 83.339 229.960 82.532 229.651 C 81.725 229.341 80.761 229.578 80.390 230.179 C 79.565 231.513 88.986 230.332 90.450 228.918 C 90.973 228.413 92.435 228.000 93.700 228.000 C 96.058 228.000 96.785 226.603 95.000 225.500 C 94.450 225.160 94.000 225.385 94.000 226.000 "/></g>
<g fill="#C019671F" stroke="#C019671F">
<path d="M 114.000 169.683 C 114.000 170.663 111.053 172.114 108.500 172.391 C 107.950 172.451 106.901 173.067 106.169 173.759 C 105.438 174.452 104.425 174.763 103.919 174.450 C 103.414 174.138 103.000 174.385 103.000 175.000 C 103.000 175.615 102.550 175.840 102.000 175.500 C 101.450 175.160 101.000 175.385 101.000 176.000 C 101.000 176.615 100.550 176.840 100.000 176.500 C 99.450 176.160 99.000 176.359 99.000 176.941 C 99.000 178.423 99.412 178.329 105.814 175.389 C 108.941 173.954 112.586 172.362 113.913 171.852 C 115.747 171.148 116.047 170.647 115.163 169.763 C 114.377 168.977 114.000 168.951 114.000 169.683 "/></g>
<g fill="#E5BF3822" stroke="#E5BF3822">
<path d="M 35.500 68.000 C 35.840 68.550 35.612 69.000 34.994 69.000 C 33.745 69.000 28.780 74.482 28.000 76.724 C 27.725 77.515 30.019 75.650 33.099 72.580 C 37.313 68.380 38.225 67.000 36.790 67.000 C 35.740 67.000 35.160 67.450 35.500 68.000 "/></g>
<g fill="#1466A22A" stroke="#1466A22A">
<path d="M 22.598 172.736 C 21.782 173.551 21.838 190.414 22.663 192.565 C 23.028 193.515 23.297 189.308 23.261 183.216 C 23.225 177.123 22.926 172.407 22.598 172.736 "/></g>
<g fill="#0076FF80" stroke="#0076FF80">
<path d="M 280.187 199.691 C 280.084 205.846 280.338 211.092 280.750 211.349 C 281.163 211.605 281.247 206.569 280.937 200.158 L 280.375 188.500 280.187 199.691 "/></g>
<g fill="#C019671F" stroke="#C019671F">
<path d="M 35.685 223.648 C 35.346 223.988 36.151 225.118 37.475 226.159 C 41.951 229.680 51.103 232.593 49.490 229.984 C 49.144 229.425 48.474 229.207 48.000 229.500 C 47.526 229.793 46.868 229.595 46.537 229.060 C 46.206 228.525 45.372 228.304 44.683 228.568 C 43.994 228.833 42.433 228.120 41.215 226.986 C 39.997 225.851 38.986 225.277 38.968 225.711 C 38.951 226.145 38.344 225.719 37.619 224.766 C 36.895 223.812 36.025 223.309 35.685 223.648 "/></g>
<g fill="#E5BF3822" stroke="#E5BF3822">
<path d="M 19.290 154.000 C 19.577 155.100 19.405 156.000 18.906 156.000 C 18.408 156.000 18.052 157.688 18.116 159.750 C 18.180 161.813 18.438 162.713 18.689 161.750 C 18.941 160.788 19.564 160.000 20.073 160.000 C 20.583 160.000 21.000 158.200 21.000 156.000 C 21.000 153.721 20.519 152.000 19.883 152.000 C 19.259 152.000 18.997 152.882 19.290 154.000 "/></g>
<g fill="#C019671F" stroke="#C019671F">
<path d="M 122.500 132.000 C 120.300 133.063 117.938 133.947 117.250 133.966 C 116.563 133.985 116.000 134.398 116.000 134.883 C 116.000 135.369 115.007 136.026 113.794 136.344 C 112.580 136.661 111.843 137.176 112.155 137.489 C 112.468 137.801 114.923 136.954 117.612 135.607 C 120.300 134.259 123.164 133.009 123.976 132.828 C 125.633 132.460 128.600 129.981 127.321 130.034 C 126.870 130.053 124.700 130.937 122.500 132.000 "/></g>
<g fill="#0076FFC0" stroke="#0076FFC0">
<path d="M 554.015 145.250 C 554.002 146.786 555.081 147.000 562.833 147.000 C 567.692 147.000 571.956 146.711 572.309 146.358 C 572.662 146.005 569.069 145.809 564.325 145.923 C 558.099 146.073 555.467 145.765 554.865 144.815 C 554.235 143.822 554.027 143.929 554.015 145.250 "/></g>
<g fill="#0076FF40" stroke="#0076FF40">
<path d="M 294.408 142.225 C 294.597 143.155 297.286 143.494 304.333 143.477 L 314.000 143.455 304.583 143.227 C 299.386 143.102 294.939 142.541 294.658 141.975 C 294.379 141.411 294.266 141.524 294.408 142.225 "/></g>
<g fill="#0076FF80" stroke="#0076FF80">
<path d="M 230.200 84.500 L 230.000 88.000 223.000 88.221 L 216.000 88.441 223.250 88.471 L 230.500 88.500 230.450 84.750 C 230.401 81.101 230.395 81.095 230.200 84.500 "/></g>
<g fill="#C019671F" stroke="#C019671F">
<path d="M 99.592 143.297 C 94.760 146.021 92.000 148.189 92.000 149.261 C 92.000 149.710 92.968 149.176 94.151 148.074 C 95.335 146.971 96.648 146.283 97.071 146.544 C 97.493 146.805 98.447 146.410 99.190 145.667 C 99.933 144.924 101.656 143.719 103.018 142.990 C 104.380 142.261 105.046 141.536 104.497 141.379 C 103.949 141.222 101.742 142.085 99.592 143.297 "/></g>
<g fill="#0076FFC0" stroke="#0076FFC0">
<path d="M 515.000 141.059 L 505.500 141.617 515.333 141.809 C 520.742 141.914 525.017 141.663 524.833 141.250 C 524.650 140.838 520.225 140.751 515.000 141.059 "/></g>
<g fill="#0076FF80" stroke="#0076FF80">
<path d="M 708.150 145.000 C 708.066 145.562 704.056 146.099 699.000 146.226 L 690.000 146.452 699.250 146.476 C 706.048 146.494 708.473 146.169 708.400 145.250 C 708.345 144.563 708.233 144.450 708.150 145.000 "/></g>
<g fill="#1466A22A" stroke="#1466A22A">
<path d="M 79.230 100.750 C 75.260 103.363 72.009 105.798 72.006 106.162 C 72.003 106.526 75.660 104.389 80.132 101.412 C 84.605 98.435 87.856 96.000 87.356 96.000 C 86.857 96.000 83.200 98.138 79.230 100.750 "/></g>
<g fill="#0076FF40" stroke="#0076FF40">
<path d="M 328.000 172.325 C 327.725 172.600 327.776 177.027 328.114 182.162 L 328.728 191.500 328.614 181.663 C 328.551 176.252 328.275 172.051 328.000 172.325 "/></g>
<g fill="#0076FF40" stroke="#0076FF40">
<path d="M 794.225 129.500 C 794.100 134.224 793.556 138.067 793.000 138.150 C 792.450 138.233 792.563 138.345 793.250 138.400 C 794.164 138.473 794.493 136.149 794.475 129.750 L 794.450 121.000 794.225 129.500 "/></g>
<g fill="#0076FF40" stroke="#0076FF40">
<path d="M 796.975 91.658 C 797.539 91.938 798.101 95.954 798.225 100.583 L 798.450 109.000 798.475 100.333 C 798.493 94.095 798.143 91.594 797.225 91.408 C 796.524 91.266 796.411 91.379 796.975 91.658 "/></g>
<g fill="#0076FF80" stroke="#0076FF80">
<path d="M 669.651 232.250 C 669.908 232.663 674.254 232.920 679.309 232.822 L 688.500 232.644 678.842 232.072 C 673.530 231.757 669.394 231.838 669.651 232.250 "/></g>
<g fill="#1466A22A" stroke="#1466A22A">
<path d="M 46.661 166.686 C 43.450 170.337 40.525 174.135 40.161 175.126 C 39.797 176.117 40.937 175.032 42.694 172.714 C 44.451 170.396 47.376 166.598 49.194 164.274 C 51.012 161.950 49.872 163.036 46.661 166.686 "/></g>
<g fill="#0076FF40" stroke="#0076FF40">
<path d="M 705.075 91.342 L 705.649 100.500 705.825 91.809 C 705.921 87.029 705.663 82.908 705.250 82.651 C 704.838 82.395 704.759 86.305 705.075 91.342 "/></g>
<g fill="#0076FFC0" stroke="#0076FFC0">
<path d="M 268.996 94.752 C 268.723 99.291 268.856 103.004 269.290 103.002 C 269.725 103.001 269.948 99.288 269.786 94.750 L 269.491 86.500 268.996 94.752 "/></g>
<g fill="#0076FF80" stroke="#0076FF80">
<path d="M 729.172 162.691 C 729.078 167.196 729.338 171.092 729.750 171.349 C 730.163 171.605 730.240 167.919 729.922 163.158 L 729.345 154.500 729.172 162.691 "/></g>
<g fill="#C019671F" stroke="#C019671F">
<path d="M 117.688 213.612 C 116.691 214.948 115.501 215.809 115.043 215.526 C 114.584 215.243 113.941 215.712 113.612 216.569 C 113.283 217.426 112.608 217.876 112.112 217.569 C 111.616 217.262 110.952 217.684 110.636 218.506 C 109.743 220.834 111.414 220.278 115.114 217.016 C 116.977 215.375 118.870 214.025 119.323 214.016 C 119.776 214.007 120.001 213.366 119.823 212.591 C 119.596 211.601 118.962 211.904 117.688 213.612 "/></g>
<g fill="#C019671F" stroke="#C019671F">
<path d="M 134.055 195.481 C 132.710 197.899 131.178 199.610 130.650 199.284 C 130.123 198.958 129.995 199.183 130.367 199.784 C 130.738 200.385 130.245 201.341 129.271 201.908 C 127.847 202.737 127.800 202.945 129.034 202.970 C 129.878 202.986 131.419 201.538 132.459 199.750 C 133.499 197.963 134.710 196.255 135.150 195.956 C 135.590 195.657 136.074 194.439 136.225 193.249 C 136.394 191.920 135.557 192.781 134.055 195.481 "/></g>
<g fill="#C019671F" stroke="#C019671F">
<path d="M 95.000 179.226 C 95.000 179.716 94.550 179.840 94.000 179.500 C 93.450 179.160 93.000 179.434 93.000 180.108 C 93.000 180.782 92.727 181.060 92.394 180.727 C 92.060 180.393 90.823 181.050 89.644 182.186 C 87.274 184.469 87.634 184.409 93.746 181.500 C 98.119 179.419 99.063 178.333 96.500 178.333 C 95.675 178.333 95.000 178.735 95.000 179.226 "/></g>
<g fill="#1466A22A" stroke="#1466A22A">
<path d="M 24.653 200.000 C 24.972 201.925 25.428 203.709 25.665 203.965 C 26.750 205.134 29.521 202.004 29.706 199.399 C 29.910 196.533 29.901 196.537 28.927 199.750 C 28.386 201.538 27.571 203.000 27.116 203.000 C 26.661 203.000 25.791 201.538 25.181 199.750 L 24.073 196.500 24.653 200.000 "/></g>
<g fill="#E5BF3822" stroke="#E5BF3822">
<path d="M 22.413 138.750 C 21.300 143.912 21.328 144.524 22.609 142.904 C 24.064 141.063 25.197 135.000 24.086 135.000 C 23.611 135.000 22.858 136.688 22.413 138.750 "/></g>
<g fill="#1466A22A" stroke="#1466A22A">
<path d="M 64.033 111.813 C 60.751 114.391 58.051 116.854 58.033 117.286 C 58.015 117.719 60.710 115.818 64.021 113.062 C 71.787 106.599 71.796 105.715 64.033 111.813 "/></g>
<g fill="#0076FF40" stroke="#0076FF40">
<path d="M 312.162 123.250 L 312.323 130.500 312.912 123.249 C 313.235 119.260 313.163 115.998 312.750 115.999 C 312.338 115.999 312.073 119.263 312.162 123.250 "/></g>
<g fill="#E5C03AB4" stroke="#E5C03AB4">
<path d="M 17.193 169.309 C 17.057 173.409 16.660 174.908 15.845 174.405 C 15.130 173.962 14.962 174.130 15.405 174.845 C 17.146 177.663 18.075 175.637 17.740 169.750 L 17.385 163.500 17.193 169.309 "/></g>
<g fill="#C019671F" stroke="#C019671F">
<path d="M 65.868 202.500 C 64.516 204.637 63.913 209.828 64.941 210.464 C 65.602 210.872 66.056 209.780 66.150 207.559 C 66.233 205.602 66.345 203.438 66.400 202.750 C 66.458 202.028 66.233 201.922 65.868 202.500 "/></g>
<g fill="#C019671F" stroke="#C019671F">
<path d="M 117.760 196.377 C 115.703 197.545 114.015 199.063 114.010 199.750 C 114.004 200.488 114.833 200.167 116.036 198.964 C 117.157 197.843 118.436 197.151 118.879 197.425 C 119.322 197.699 120.093 197.097 120.592 196.088 C 121.420 194.416 121.170 194.441 117.760 196.377 "/></g>
<g fill="#E5BF3822" stroke="#E5BF3822">
<path d="M 10.975 104.565 C 9.779 107.712 9.771 108.000 10.883 108.000 C 11.369 108.000 12.045 107.213 12.384 106.250 C 12.724 105.288 13.263 103.938 13.584 103.250 C 13.904 102.563 13.668 102.000 13.059 102.000 C 12.449 102.000 11.512 103.154 10.975 104.565 "/></g>
<g fill="#C019671F" stroke="#C019671F">
<path d="M 124.500 208.045 L 121.500 211.948 125.321 208.248 C 127.422 206.212 128.772 204.456 128.321 204.345 C 127.869 204.234 126.150 205.899 124.500 208.045 "/></g>
<g fill="#C019671F" stroke="#C019671F">
<path d="M 61.267 168.293 C 59.489 169.507 58.027 170.907 58.017 171.405 C 58.008 171.903 58.947 171.453 60.105 170.405 C 61.263 169.357 62.482 168.652 62.815 168.837 C 63.148 169.022 63.663 168.479 63.960 167.630 C 64.362 166.480 63.674 166.650 61.267 168.293 "/></g>
<g fill="#C019671F" stroke="#C019671F">
<path d="M 153.000 155.907 C 153.000 156.626 152.419 156.991 151.708 156.718 C 150.998 156.446 149.535 156.877 148.458 157.677 C 146.627 159.038 146.695 159.090 149.500 158.482 C 155.017 157.288 155.441 157.041 154.167 155.767 C 153.278 154.878 153.000 154.911 153.000 155.907 "/></g>
<g fill="#1466A22A" stroke="#1466A22A">
<path d="M 39.833 136.242 C 37.816 138.586 36.016 141.053 35.833 141.723 C 35.650 142.393 37.300 140.475 39.500 137.461 C 43.478 132.011 43.479 132.004 39.833 136.242 "/></g>
<g fill="#E5BF3822" stroke="#E5BF3822">
<path d="M 10.393 168.582 C 10.727 169.452 11.000 170.577 11.000 171.082 C 11.000 171.587 11.633 172.000 12.406 172.000 C 13.547 172.000 13.594 171.530 12.656 169.508 C 11.403 166.807 9.397 165.986 10.393 168.582 "/></g>
<g fill="#1466A22A" stroke="#1466A22A">
<path d="M 49.000 125.953 L 44.500 130.556 49.000 125.953 L 53.500 121.350 49.000 125.953 "/></g>
<g fill="#C019671F" stroke="#C019671F">
<path d="M 99.387 224.183 C 99.098 224.650 98.443 224.774 97.931 224.457 C 97.419 224.141 97.000 224.407 97.000 225.048 C 97.000 225.700 97.697 225.947 98.582 225.607 C 99.452 225.273 100.802 225.000 101.582 225.000 C 102.362 225.000 103.000 224.625 103.000 224.167 C 103.000 223.074 100.064 223.087 99.387 224.183 "/></g>
<g fill="#C019671F" stroke="#C019671F">
<path d="M 131.080 128.097 C 129.234 128.833 128.938 129.338 129.830 130.230 C 130.617 131.017 131.000 131.045 131.000 130.317 C 131.000 129.721 132.013 128.925 133.250 128.549 C 134.488 128.173 135.050 127.701 134.500 127.500 C 133.950 127.298 132.411 127.567 131.080 128.097 "/></g>
<g fill="#E5BF3822" stroke="#E5BF3822">
<path d="M 20.839 145.500 C 20.501 146.050 20.324 147.625 20.446 149.000 C 20.624 151.015 20.813 151.172 21.418 149.808 C 22.283 147.861 21.763 143.995 20.839 145.500 "/></g>
<g fill="#1466A22A" stroke="#1466A22A">
<path d="M 25.718 160.683 C 25.452 161.133 24.959 163.075 24.620 165.000 L 24.006 168.500 25.507 164.587 C 26.843 161.103 26.982 158.545 25.718 160.683 "/></g>
<g fill="#1466A22A" stroke="#1466A22A">
<path d="M 97.275 89.820 C 95.501 90.744 94.151 91.808 94.275 92.185 C 94.399 92.562 96.300 91.777 98.500 90.440 C 103.024 87.692 102.180 87.265 97.275 89.820 "/></g>
<g fill="#0076FFC0" stroke="#0076FFC0">
<path d="M 212.500 114.449 L 208.500 118.559 212.500 114.449 L 216.500 110.338 212.500 114.449 "/></g>
<g fill="#0076FFC0" stroke="#0076FFC0">
<path d="M 223.000 124.942 L 219.500 128.562 223.000 124.942 L 226.500 121.323 223.000 124.942 "/></g>
<g fill="#0076FFC0" stroke="#0076FFC0">
<path d="M 733.000 111.942 L 729.500 115.562 733.000 111.942 L 736.500 108.323 733.000 111.942 "/></g>
<g fill="#0076FFC0" stroke="#0076FFC0">
<path d="M 286.000 106.942 L 282.500 110.562 286.000 106.942 L 289.500 103.323 286.000 106.942 "/></g>
<g fill="#0076FF40" stroke="#0076FF40">
<path d="M 213.000 225.942 L 209.500 229.562 213.000 225.942 L 216.500 222.323 213.000 225.942 "/></g>
<g fill="#0076FF40" stroke="#0076FF40">
<path d="M 775.000 219.942 L 771.500 223.562 775.000 219.942 L 778.500 216.323 775.000 219.942 "/></g>
<g fill="#C51E67CD" stroke="#C51E67CD">
<path d="M 124.000 206.942 L 120.500 210.562 124.000 206.942 L 127.500 203.323 124.000 206.942 "/></g>
<g fill="#C019671F" stroke="#C019671F">
<path d="M 104.989 221.857 C 103.743 223.190 103.790 223.294 105.365 222.690 C 106.354 222.311 107.577 222.000 108.082 222.000 C 108.587 222.000 109.000 221.625 109.000 221.167 C 109.000 219.796 106.515 220.223 104.989 221.857 "/></g>
<g fill="#C019671F" stroke="#C019671F">
<path d="M 119.500 168.603 C 117.850 169.388 117.324 169.798 118.332 169.515 C 119.339 169.232 120.839 169.000 121.665 169.000 C 122.491 169.000 123.017 168.589 122.833 168.088 C 122.650 167.586 121.150 167.817 119.500 168.603 "/></g>
<g fill="#C019671F" stroke="#C019671F">
<path d="M 139.000 125.279 C 137.550 125.884 137.130 126.385 138.000 126.473 C 138.825 126.555 140.132 126.145 140.904 125.561 C 141.676 124.978 142.576 124.709 142.904 124.964 C 143.232 125.218 143.050 125.159 142.500 124.831 C 141.950 124.503 140.375 124.705 139.000 125.279 "/></g>
<g fill="#1466A22A" stroke="#1466A22A">
<path d="M 86.079 133.411 C 84.197 134.560 83.297 135.391 84.079 135.258 C 84.860 135.126 86.400 134.185 87.500 133.169 C 89.132 131.661 88.871 131.705 86.079 133.411 "/></g>
<g fill="#0076FFC0" stroke="#0076FFC0">
<path d="M 749.000 217.778 C 749.000 218.244 750.442 219.948 752.205 221.563 L 755.410 224.500 752.205 220.715 C 750.442 218.634 749.000 217.312 749.000 217.778 "/></g>
<g fill="#0076FFC0" stroke="#0076FFC0">
<path d="M 248.500 199.500 L 252.000 203.000 248.500 199.500 L 245.000 196.000 248.500 199.500 "/></g>
<g fill="#0076FF40" stroke="#0076FF40">
<path d="M 238.500 211.500 L 242.000 215.000 238.500 211.500 L 235.000 208.000 238.500 211.500 "/></g>
<g fill="#0076FF80" stroke="#0076FF80">
<path d="M 203.500 210.435 L 200.500 213.564 203.500 210.435 L 206.500 207.305 203.500 210.435 "/></g>
<g fill="#C61D6673" stroke="#C61D6673">
<path d="M 123.500 208.435 L 120.500 211.564 123.500 208.435 L 126.500 205.305 123.500 208.435 "/></g>
<g fill="#C61D6673" stroke="#C61D6673">
<path d="M 63.647 206.862 C 63.008 208.631 63.246 209.634 64.592 210.862 C 66.199 212.326 66.262 212.328 65.183 210.883 C 64.520 209.994 64.094 208.194 64.238 206.883 L 64.500 204.500 63.647 206.862 "/></g>
<g fill="#0076FF10" stroke="#0076FF10">
<path d="M 285.500 106.435 L 282.500 109.564 285.500 106.435 L 288.500 103.305 285.500 106.435 "/></g>
</svg>
